<?xml version="1.0" encoding="UTF-8"?>
<svg xmlns="http://www.w3.org/2000/svg" xmlns:xlink="http://www.w3.org/1999/xlink" width="814.47pt" height="1390pt" viewBox="0 0 814.47 1390" version="1.1">
<defs>
<clipPath id="clip1">
  <path d="M 0 0 L 814.46875 0 L 814.46875 497 L 0 497 Z M 0 0 "/>
</clipPath>
</defs>
<g id="surface1">
<path style=" stroke:none;fill-rule:nonzero;fill:rgb(100%,100%,100%);fill-opacity:1;" d="M 280.832031 184.25 C 282.378906 186.761719 284.355469 189.96875 287.148438 194.609375 C 294.507813 206.78125 305.890625 252.578125 320.566406 267.769531 C 328.414063 262.460938 341.964844 255.609375 349.675781 252.839844 C 347.902344 249.871094 339.648438 235.769531 330.496094 223.78125 C 312.839844 200.359375 300.175781 187.859375 298.753906 185.839844 C 293.996094 185.761719 285.902344 186.019531 280.832031 184.25 "/>
<path style=" stroke:none;fill-rule:nonzero;fill:rgb(100%,100%,100%);fill-opacity:1;" d="M 413.222656 245.238281 C 416.722656 221.261719 408.738281 181.46875 404.042969 171.5 C 398.050781 169.96875 391.878906 167.871094 386.816406 165.441406 C 386.148438 168.488281 381.644531 184.761719 380.148438 208.660156 C 379.359375 221.480469 379.679688 240.960938 382.050781 245.238281 C 389.628906 244.488281 402.351563 244.230469 413.222656 245.238281 "/>
<path style=" stroke:none;fill-rule:nonzero;fill:rgb(100%,100%,100%);fill-opacity:1;" d="M 477.058594 345.160156 C 470.269531 339.558594 461.359375 337.101563 457.957031 339.558594 L 458.082031 340.691406 C 458.773438 348.941406 452.699219 356.179688 444.484375 356.949219 C 436.207031 357.691406 428.941406 351.53125 428.234375 343.320313 L 428.234375 342.679688 C 422.871094 340.96875 414.285156 343.941406 413.109375 343.480469 C 412.429688 343.171875 408.785156 327.921875 413.511719 326.011719 C 426.441406 320.738281 468.046875 318.148438 480.136719 341.519531 C 481.546875 344.351563 480.664063 348.128906 477.058594 345.160156 M 413.425781 387.488281 C 410.796875 395.117188 383.746094 397.542969 378.796875 387.609375 C 376.835938 383.679688 374.121094 373.511719 377.792969 375.609375 C 383.792969 379.121094 405.542969 376.628906 409.664063 375.609375 C 413.304688 374.671875 410.925781 369.621094 413.167969 370.21875 C 415.863281 370.960938 415.863281 380.238281 413.425781 387.488281 M 370.5 342.621094 C 370.105469 350.878906 363.09375 357.238281 354.78125 356.808594 C 346.539063 356.421875 340.203125 349.328125 340.613281 341.121094 L 340.746094 339.460938 C 339.484375 337.488281 332.757813 335.320313 322.730469 341.398438 C 317.714844 344.46875 312.066406 342.359375 320.808594 334.789063 C 330.085938 326.738281 338.859375 322.058594 346.640625 321.101563 L 346.867188 321.058594 C 359.949219 320.160156 376.933594 322.800781 384.863281 326.039063 C 388.171875 327.378906 384.75 343.578125 383.988281 343.359375 C 381.304688 342.789063 375.417969 340.308594 370.480469 341.441406 Z M 527.359375 386.5 C 527.359375 314.371094 470.859375 257.828125 398.6875 257.828125 C 327.621094 257.828125 270 315.441406 270 386.5 C 270 389.898438 270.761719 396.773438 271.878906 403.742188 C 308.886719 395.160156 357.980469 396.546875 379.777344 413.824219 C 415.078125 393.6875 465.949219 392.449219 503.191406 414.121094 C 510.601563 410.425781 518.320313 407.757813 526.097656 405.515625 C 527.007813 398.59375 527.359375 391.328125 527.359375 386.5 "/>
<path style=" stroke:none;fill-rule:nonzero;fill:rgb(100%,100%,100%);fill-opacity:1;" d="M 484.886719 182.828125 C 469.753906 195.640625 446.640625 226.679688 443.691406 251.5 C 450.792969 254.390625 469.542969 263.339844 472.109375 265.460938 C 490.714844 247.070313 486.941406 226.871094 494.203125 211.25 C 497.335938 204.5 500.402344 199.179688 502.175781 196.140625 C 496.121094 192.878906 489.613281 188.199219 484.886719 182.828125 "/>
<path style=" stroke:none;fill-rule:nonzero;fill:rgb(100%,100%,100%);fill-opacity:1;" d="M 153.929688 626.621094 C 134.660156 627.175781 115.820313 634.789063 104.75 632.863281 L 104.75 761.886719 C 104.75 761.886719 111.738281 767.21875 131.070313 761.722656 C 156.09375 754.585938 167.21875 762.421875 167.21875 762.421875 L 167.21875 632.234375 C 167.21875 632.234375 164.320313 626.28125 153.929688 626.621094 "/>
<path style=" stroke:none;fill-rule:nonzero;fill:rgb(100%,100%,100%);fill-opacity:1;" d="M 284.117188 792.640625 L 195.449219 792.640625 L 195.449219 803.773438 L 158.691406 803.773438 L 158.691406 792.640625 L 69.96875 792.640625 L 69.96875 642.785156 L 88.878906 642.785156 L 88.878906 615.527344 C 108.128906 620.160156 139.523438 609.566406 153.511719 609.597656 C 169.152344 609.652344 177.082031 616.378906 177.082031 616.378906 C 177.082031 616.378906 185.132813 609.597656 200.605469 609.597656 C 214.613281 609.597656 245.964844 620.074219 265.214844 615.527344 L 265.214844 642.785156 L 284.117188 642.785156 Z M 331.253906 569.289063 L 21.558594 569.289063 L 21.558594 849.964844 L 331.253906 849.964844 L 331.253906 569.289063 "/>
<path style=" stroke:none;fill-rule:nonzero;fill:rgb(100%,100%,100%);fill-opacity:1;" d="M 643.261719 626.621094 C 632.902344 626.28125 629.929688 632.234375 629.929688 632.234375 L 629.929688 762.421875 C 629.929688 762.421875 641.089844 754.585938 666.128906 761.722656 C 685.460938 767.21875 692.476563 761.886719 692.476563 761.886719 L 692.476563 632.863281 C 681.402344 634.789063 662.542969 627.175781 643.261719 626.621094 "/>
<path style=" stroke:none;fill-rule:nonzero;fill:rgb(100%,100%,100%);fill-opacity:1;" d="M 200.132813 626.621094 C 189.777344 626.28125 186.847656 632.234375 186.847656 632.234375 L 186.847656 762.421875 C 186.847656 762.421875 198.007813 754.585938 223.046875 761.722656 C 242.359375 767.21875 249.34375 761.886719 249.34375 761.886719 L 249.34375 632.863281 C 238.277344 634.789063 219.4375 627.175781 200.132813 626.621094 "/>
<path style=" stroke:none;fill-rule:nonzero;fill:rgb(100%,100%,100%);fill-opacity:1;" d="M 575.136719 231.980469 C 571.78125 233.839844 563.941406 238.621094 561.3125 240.621094 C 543.449219 254.050781 504.71875 272.140625 495.773438 282.050781 C 502.890625 288.371094 513.410156 299.671875 518.152344 309.160156 C 522.511719 309.351563 535.011719 299.148438 559.792969 270 C 567.738281 260.679688 576.199219 255.769531 591.523438 247.230469 C 585.214844 242.730469 579.746094 237.5 575.136719 231.980469 "/>
<path style=" stroke:none;fill-rule:nonzero;fill:rgb(100%,100%,100%);fill-opacity:1;" d="M 632.378906 1036.75 L 632.378906 1166.949219 C 632.378906 1166.949219 643.53125 1159.148438 668.554688 1166.328125 C 687.894531 1171.839844 694.832031 1166.488281 694.832031 1166.488281 L 694.832031 1037.480469 C 683.757813 1039.359375 664.941406 1031.789063 645.671875 1031.160156 C 635.257813 1030.828125 632.378906 1036.75 632.378906 1036.75 "/>
<path style=" stroke:none;fill-rule:nonzero;fill:rgb(100%,100%,100%);fill-opacity:1;" d="M 550.285156 1037.460938 L 550.285156 1166.511719 C 550.285156 1166.511719 557.25 1171.839844 576.566406 1166.300781 C 601.601563 1159.160156 612.777344 1166.949219 612.777344 1166.949219 L 612.777344 1036.75 C 612.777344 1036.75 609.835938 1030.828125 599.464844 1031.179688 C 580.171875 1031.769531 561.332031 1039.339844 550.285156 1037.460938 "/>
<path style=" stroke:none;fill-rule:nonzero;fill:rgb(100%,100%,100%);fill-opacity:1;" d="M 597.078125 626.621094 C 577.792969 627.175781 558.910156 634.789063 547.84375 632.863281 L 547.84375 761.886719 C 547.84375 761.886719 554.835938 767.21875 574.183594 761.722656 C 599.164063 754.585938 610.335938 762.421875 610.335938 762.421875 L 610.335938 632.234375 C 610.335938 632.234375 607.457031 626.28125 597.078125 626.621094 "/>
<path style=" stroke:none;fill-rule:nonzero;fill:rgb(100%,100%,100%);fill-opacity:1;" d="M 729.648438 792.640625 L 640.976563 792.640625 L 640.976563 803.773438 L 604.175781 803.773438 L 604.175781 792.640625 L 515.511719 792.640625 L 515.511719 642.785156 L 534.40625 642.785156 L 534.40625 615.527344 C 553.636719 620.160156 585.011719 609.566406 599.039063 609.597656 C 614.679688 609.652344 622.582031 616.378906 622.582031 616.378906 C 622.582031 616.378906 630.640625 609.597656 646.109375 609.597656 C 660.117188 609.597656 691.492188 620.074219 710.738281 615.527344 L 710.738281 642.785156 L 729.648438 642.785156 Z M 775.859375 569.289063 L 466.269531 569.289063 L 466.269531 849.964844 L 775.859375 849.964844 L 775.859375 569.289063 "/>
<path style=" stroke:none;fill-rule:nonzero;fill:rgb(100%,100%,100%);fill-opacity:1;" d="M 76.03125 409.765625 C 52.316406 409.265625 32.597656 415.953125 25.632813 428.109375 C 12.808594 450.507813 27.871094 469.824219 36.882813 475.226563 C 57.480469 487.621094 77.148438 479.550781 78.59375 471.910156 C 72.953125 465.570313 63.246094 451.238281 57.804688 451.109375 C 49.894531 450.882813 50.519531 440.636719 56.292969 438.757813 C 70.054688 434.210938 83.425781 460.335938 103.207031 474.453125 C 120.835938 487.070313 145.53125 477.832031 145.53125 472.640625 C 134.742188 462.898438 121.859375 410.792969 76.03125 409.765625 "/>
<path style=" stroke:none;fill-rule:nonzero;fill:rgb(100%,100%,100%);fill-opacity:1;" d="M 357.25 419.050781 C 330.113281 406.246094 291.808594 410.519531 259.578125 421.945313 C 268.511719 433.855469 283.347656 461.621094 290.996094 470.980469 C 305.816406 489.023438 331.160156 479.941406 332.179688 474.464844 C 330.414063 471.15625 316.820313 453.554688 311.695313 450.625 C 306.933594 447.894531 304.128906 443.53125 306.820313 439.730469 C 311.339844 433.40625 321.886719 439.730469 327.613281 446.65625 C 333.339844 453.589844 349.402344 473.722656 354.683594 477.316406 C 370.542969 488.058594 400.746094 482.429688 398.207031 473.226563 C 387.816406 459.519531 383.289063 431.28125 357.25 419.050781 "/>
<path style=" stroke:none;fill-rule:nonzero;fill:rgb(100%,100%,100%);fill-opacity:1;" d="M 298.808594 285.230469 C 276.511719 267.261719 256.023438 263.410156 223.339844 248.078125 C 215.941406 244.589844 203.507813 236.21875 202.890625 235.878906 C 201.992188 235.238281 200.363281 234.210938 198.363281 232.988281 C 196.441406 239.128906 192.53125 247.421875 188.960938 252.070313 C 194.015625 258.660156 230.539063 300.328125 277.28125 313.328125 C 282.394531 304.378906 290.660156 294.050781 298.808594 285.230469 "/>
<path style=" stroke:none;fill-rule:nonzero;fill:rgb(100%,100%,100%);fill-opacity:1;" d="M 263.105469 339.671875 C 254.757813 331.429688 238.109375 324.269531 216.453125 326 C 172.109375 329.5 142.945313 326.640625 126.203125 324.269531 C 97.5 320.160156 79.699219 324.199219 65.367188 324.199219 C 21.761719 324.199219 66.585938 328.078125 71.6875 330.101563 C 92.21875 338.191406 133.585938 348.449219 166.160156 346.078125 C 182.042969 344.960938 208.671875 354.648438 213.238281 356.25 C 224.949219 360.410156 246.121094 367.230469 257.535156 367 C 258.175781 361.789063 260.863281 346.210938 263.105469 339.671875 "/>
<path style=" stroke:none;fill-rule:nonzero;fill:rgb(100%,100%,100%);fill-opacity:1;" d="M 547.554688 471.378906 C 563.941406 487.992188 586.308594 480.859375 587.328125 475.433594 C 585.511719 472.117188 575.160156 456.890625 569.085938 453.578125 C 564.113281 450.839844 560.90625 446.285156 563.578125 442.503906 C 568.039063 436.207031 576.996094 440.675781 582.738281 447.574219 C 588.445313 454.578125 604.230469 475.128906 609.769531 478.292969 C 624.148438 486.25 655.816406 483.386719 653.246094 474.148438 C 644.496094 460.265625 638.4375 432.261719 612.363281 419.960938 C 585.242188 407.1875 550.480469 410.519531 518.320313 422.003906 C 524.089844 433.539063 539.175781 462.957031 547.554688 471.378906 "/>
<path style=" stroke:none;fill-rule:nonzero;fill:rgb(100%,100%,100%);fill-opacity:1;" d="M 767.203125 317.46875 C 765.011719 317.128906 756.691406 316.019531 751.375 316.050781 C 744.320313 316.070313 698.144531 316.300781 685.527344 318.25 C 659.675781 322.289063 609.65625 320.191406 582.242188 319.160156 C 561.773438 318.351563 538.164063 326.339844 530.964844 330.210938 C 530.964844 330.210938 538.859375 349.941406 539.386719 363.351563 C 548.097656 364.910156 556.472656 353.910156 581.34375 354.308594 C 607.242188 354.738281 670.992188 351.261719 703.257813 338.691406 C 727.359375 329.378906 747.585938 324.679688 763.972656 321.371094 C 769.453125 320.230469 778.144531 319.160156 767.203125 317.46875 "/>
<path style=" stroke:none;fill-rule:nonzero;fill:rgb(100%,100%,100%);fill-opacity:1;" d="M 167.261719 1166.949219 L 167.261719 1036.75 C 167.261719 1036.75 164.308594 1030.828125 153.96875 1031.199219 C 134.679688 1031.769531 115.808594 1039.339844 104.789063 1037.460938 L 104.789063 1166.53125 C 104.789063 1166.53125 111.726563 1171.839844 131.070313 1166.300781 C 156.09375 1159.148438 167.261719 1166.949219 167.261719 1166.949219 "/>
<path style=" stroke:none;fill-rule:nonzero;fill:rgb(100%,100%,100%);fill-opacity:1;" d="M 175.3125 140.429688 C 179.46875 118.511719 200.894531 86.589844 249.867188 99.03125 C 255.863281 100.550781 252.316406 115.800781 245.875 113.238281 C 210.128906 99.21875 192.175781 126.339844 186.386719 147.730469 C 185.59375 150.628906 173.613281 149.539063 175.3125 140.429688 M 158.082031 167.210938 C 137.925781 169.441406 132.03125 179.261719 128.441406 190.539063 C 126.953125 194.820313 115.644531 191.761719 117.4375 183.398438 C 122.800781 158.570313 149.726563 152.480469 159.511719 154.601563 C 162.796875 155.25 161.777344 166.871094 158.082031 167.210938 M 102.011719 211.570313 C 88.234375 211.570313 77.1875 211.851563 67.480469 222.398438 C 57.101563 233.621094 59.636719 239.789063 57.699219 241.820313 C 54.878906 244.589844 47.765625 239.679688 47.917969 234.140625 C 48.488281 207.691406 80.410156 197.390625 99.339844 199.511719 C 106.5625 200.351563 108.421875 211.570313 102.011719 211.570313 M 296.46875 80.289063 C 308.316406 61.53125 348.9375 32.640625 384.984375 64.441406 C 389.015625 67.96875 384.199219 81.019531 379.679688 77.980469 C 346.730469 55.339844 320.839844 73.519531 307.101563 89.910156 C 300.527344 97.710938 293.644531 84.820313 296.46875 80.289063 M 405.132813 76.921875 C 418.039063 55.960938 485.46875 36.441406 520.058594 95.738281 C 523.714844 102.21875 518.820313 105.96875 514.949219 108.621094 C 512.214844 110.589844 510.582031 106.140625 508.753906 103.21875 C 479.394531 56.78125 426.285156 69.011719 412.011719 90.570313 C 409.109375 94.929688 401.390625 83.121094 405.132813 76.921875 M 551.339844 110.589844 C 569.222656 104.261719 599.691406 101.449219 607.828125 131.339844 C 610.140625 139.691406 599.886719 143.691406 597.597656 137.839844 C 589.285156 116.191406 573.664063 117.039063 555.011719 123 C 546.402344 125.800781 548.5 111.578125 551.339844 110.589844 M 634.195313 151.148438 C 653.476563 140.140625 692.910156 142.101563 705.183594 177.289063 C 707.285156 183.28125 699.347656 193.421875 694.410156 184.359375 C 679.574219 157.148438 655.644531 157.179688 635.621094 164.839844 C 631.160156 166.589844 627.101563 155.210938 634.195313 151.148438 M 719.085938 190.730469 C 738.90625 186.140625 762.710938 200.628906 755.964844 227.269531 C 754.808594 231.820313 743.613281 232.109375 744.015625 227.460938 C 745.726563 205.160156 734.703125 203.359375 720.003906 203.511719 C 714.476563 203.628906 714.871094 191.648438 719.085938 190.730469 M 189.785156 188.539063 C 191.859375 186.789063 194.699219 187 197.308594 187.851563 C 219.144531 194.878906 250.480469 190.089844 265.097656 166.949219 C 267.15625 163.730469 271.195313 162.570313 274.714844 164 C 289.824219 170.140625 320.777344 172.96875 358.449219 134.71875 C 361.289063 131.828125 365.859375 132.191406 369 134.738281 C 402.101563 161.308594 436.597656 162.960938 471.582031 139.691406 C 473.761719 138.25 476.511719 136.398438 478.90625 137.390625 C 481.332031 138.371094 483.101563 140.460938 483.648438 143.019531 C 494.828125 194.679688 548.753906 190.121094 564.996094 187.480469 C 567.082031 187.140625 569.222656 187.660156 570.9375 188.910156 C 572.621094 190.160156 573.746094 192.03125 574.050781 194.148438 C 575.824219 206.25 589.199219 229.671875 612.402344 241.628906 C 632.253906 251.839844 653.832031 251.050781 676.660156 239.308594 C 678.945313 238.101563 681.675781 238.121094 683.957031 239.351563 C 713.234375 254.980469 739.574219 255.898438 756.214844 241.878906 C 767.953125 232.011719 772.691406 215.878906 768.035156 201.800781 C 762.84375 186.121094 747.222656 176.351563 725.222656 175.011719 C 721.515625 174.800781 718.492188 171.988281 717.921875 168.339844 C 715.964844 155.851563 708.957031 145.589844 697.675781 138.710938 C 680.457031 128.199219 655.152344 126.96875 629.949219 135.398438 C 627.726563 136.121094 625.289063 135.859375 623.300781 134.601563 C 621.3125 133.390625 619.988281 131.339844 619.648438 129.03125 C 618.257813 119.351563 614.066406 106.238281 601.941406 98.820313 C 589.152344 90.988281 569.847656 91.191406 546.082031 99.371094 C 542.386719 100.640625 538.308594 99.011719 536.515625 95.550781 C 521.230469 66.28125 499.777344 47.28125 474.464844 40.550781 C 451.785156 34.558594 426.613281 38.921875 405.34375 52.558594 C 402.570313 54.351563 398.980469 54.25 396.332031 52.261719 C 374.941406 36.191406 349.34375 31.070313 326.097656 38.210938 C 303.472656 45.101563 286.234375 62.769531 277.535156 87.929688 C 276.808594 89.96875 275.3125 91.640625 273.351563 92.539063 C 271.378906 93.410156 269.140625 93.46875 267.136719 92.679688 C 232.453125 78.761719 204.140625 79.101563 185.257813 93.710938 C 169.015625 106.238281 164.019531 126.019531 164.75 131.769531 C 165.261719 135.738281 162.859375 139.441406 158.953125 140.390625 L 150.667969 142.359375 C 131.433594 146.738281 111.5625 151.308594 105.5625 181.878906 C 104.894531 185.289063 102.054688 187.871094 98.59375 188.210938 C 65.179688 191.539063 43.367188 203.929688 38.753906 222.191406 C 35.496094 235.03125 41.464844 249.621094 53.273438 257.621094 C 65.160156 265.671875 79.46875 264.808594 92.566406 255.308594 C 94.722656 253.71875 97.550781 253.351563 100.023438 254.320313 C 119.636719 261.820313 151.457031 260.328125 170.769531 244.871094 C 184.765625 233.660156 190.238281 217.109375 187.070313 195.71875 C 186.671875 193.011719 187.691406 190.28125 189.785156 188.539063 "/>
<path style=" stroke:none;fill-rule:nonzero;fill:rgb(100%,100%,100%);fill-opacity:1;" d="M 466.285156 1351.769531 C 544.332031 1329.191406 621.632813 1299.03125 673.976563 1251.128906 C 692.503906 1234.21875 707.894531 1216.53125 720.777344 1197.210938 L 640.972656 1197.210938 L 640.972656 1208.390625 L 604.21875 1208.390625 L 604.21875 1197.210938 L 515.460938 1197.210938 L 515.460938 1047.339844 L 534.441406 1047.339844 L 534.441406 1020.019531 C 553.648438 1024.699219 585.039063 1014.128906 599.046875 1014.128906 C 614.664063 1014.128906 622.574219 1020.949219 622.574219 1020.949219 C 622.574219 1020.949219 630.648438 1014.128906 646.101563 1014.128906 C 660.132813 1014.128906 691.480469 1024.601563 710.726563 1020.019531 L 710.726563 1047.339844 L 729.6875 1047.339844 L 729.6875 1182.890625 C 758.1875 1133.609375 771.261719 1073.25 775.871094 988.425781 L 775.871094 975.785156 L 466.285156 975.785156 L 466.285156 1351.769531 "/>
<path style=" stroke:none;fill-rule:nonzero;fill:rgb(100%,100%,100%);fill-opacity:1;" d="M 223.035156 1166.300781 C 242.375 1171.839844 249.359375 1166.53125 249.359375 1166.53125 L 249.359375 1037.460938 C 238.296875 1039.339844 219.421875 1031.769531 200.132813 1031.199219 C 189.796875 1030.828125 186.847656 1036.75 186.847656 1036.75 L 186.847656 1166.949219 C 186.847656 1166.949219 198.019531 1159.148438 223.035156 1166.300781 "/>
<path style=" stroke:none;fill-rule:nonzero;fill:rgb(100%,100%,100%);fill-opacity:1;" d="M 22.175781 987.6875 C 25.277344 1065.238281 39.824219 1128.511719 69.96875 1181.359375 L 69.96875 1047.308594 L 88.945313 1047.308594 L 88.945313 1020.019531 C 108.128906 1024.699219 139.523438 1014.128906 153.53125 1014.128906 C 169.171875 1014.128906 177.097656 1020.949219 177.097656 1020.949219 C 177.097656 1020.949219 185.132813 1014.128906 200.605469 1014.128906 C 214.636719 1014.128906 245.984375 1024.601563 265.214844 1020.019531 L 265.214844 1047.308594 L 284.117188 1047.308594 L 284.117188 1197.210938 L 195.410156 1197.210938 L 195.410156 1208.390625 L 158.691406 1208.390625 L 158.691406 1197.210938 L 79.667969 1197.210938 C 92.316406 1216.359375 107.257813 1234.101563 124.816406 1250.558594 C 174.152344 1296.800781 251.539063 1328.160156 331.210938 1351.519531 L 331.210938 975.785156 L 21.558594 975.785156 L 22.175781 987.6875 "/>
<g clip-path="url(#clip1)" clip-rule="nonzero">
<path style=" stroke:none;fill-rule:nonzero;fill:rgb(13.699341%,12.199402%,12.5%);fill-opacity:1;" d="M 763.988281 321.359375 C 747.601563 324.660156 727.359375 329.371094 703.257813 338.710938 C 671.003906 351.269531 607.242188 354.730469 581.34375 354.308594 C 556.472656 353.898438 548.109375 364.898438 539.386719 363.339844 C 538.871094 349.941406 530.964844 330.199219 530.964844 330.199219 C 538.164063 326.328125 561.757813 318.339844 582.242188 319.148438 C 609.65625 320.171875 659.675781 322.269531 685.503906 318.238281 C 698.160156 316.300781 744.320313 316.078125 751.351563 316.03125 C 756.691406 316.019531 765.011719 317.128906 767.210938 317.460938 C 778.144531 319.148438 769.453125 320.21875 763.988281 321.359375 M 612.351563 419.960938 C 638.4375 432.25 644.484375 460.25 653.246094 474.148438 C 655.832031 483.375 624.132813 486.25 609.765625 478.292969 C 604.253906 475.128906 588.457031 454.566406 582.730469 447.574219 C 577.015625 440.6875 568.050781 436.195313 563.585938 442.519531 C 560.898438 446.285156 564.128906 450.839844 569.085938 453.566406 C 575.164063 456.890625 585.511719 472.117188 587.355469 475.425781 C 586.300781 480.847656 563.953125 487.984375 547.539063 471.371094 C 539.175781 462.945313 524.105469 433.523438 518.320313 422.015625 C 550.492188 410.519531 585.230469 407.1875 612.351563 419.960938 M 708.308594 411.097656 C 764.792969 415.875 778.257813 453.078125 772.636719 465.144531 C 767.679688 475.765625 733.066406 489.53125 680.613281 474.726563 C 663.300781 467.011719 649.59375 427.171875 644.527344 422.074219 C 642.484375 420.058594 675.101563 408.273438 708.308594 411.097656 M 425.675781 476.640625 C 408.414063 468.902344 394.652344 429.058594 389.5625 423.96875 C 387.515625 421.921875 420.199219 410.15625 453.394531 413 C 509.921875 417.789063 510.085938 452.914063 523.972656 470.390625 C 529.066406 476.792969 478.175781 491.4375 425.675781 476.640625 M 354.691406 477.300781 C 349.398438 473.707031 333.328125 453.589844 327.621094 446.644531 C 321.871094 439.730469 311.328125 433.40625 306.820313 439.730469 C 304.148438 443.53125 306.925781 447.882813 311.710938 450.625 C 316.816406 453.566406 330.425781 471.15625 332.199219 474.492188 C 331.144531 479.941406 305.808594 489.023438 291.003906 470.980469 C 283.359375 461.621094 268.53125 433.855469 259.59375 421.945313 C 291.796875 410.519531 330.101563 406.246094 357.234375 419.039063 C 383.28125 431.28125 387.816406 459.507813 398.195313 473.226563 C 400.746094 482.429688 370.527344 488.058594 354.691406 477.300781 M 169.738281 473.734375 C 152.429688 466.066406 138.726563 426.199219 133.644531 421.132813 C 131.613281 419.085938 164.253906 407.242188 197.460938 410.105469 C 253.953125 414.890625 254.101563 449.996094 268.03125 467.554688 C 273.101563 473.910156 222.183594 488.507813 169.738281 473.734375 M 103.195313 474.464844 C 83.433594 460.335938 70.0625 434.222656 56.28125 438.746094 C 50.53125 440.628906 49.886719 450.894531 57.792969 451.082031 C 63.238281 451.226563 72.957031 465.582031 78.582031 471.90625 C 77.136719 479.550781 57.492188 487.59375 36.898438 475.234375 C 27.878906 469.8125 12.816406 450.511719 25.644531 428.101563 C 32.578125 415.953125 52.328125 409.253906 76.039063 409.769531 C 121.867188 410.792969 134.757813 462.886719 145.519531 472.648438 C 145.519531 477.847656 120.824219 487.0625 103.195313 474.464844 M 213.226563 356.25 C 208.660156 354.648438 182.054688 344.960938 166.144531 346.078125 C 133.574219 348.449219 92.207031 338.191406 71.699219 330.101563 C 66.578125 328.101563 21.765625 324.199219 65.378906 324.199219 C 79.691406 324.199219 97.507813 320.160156 126.1875 324.269531 C 142.9375 326.640625 172.125 329.488281 216.464844 326.019531 C 238.097656 324.269531 254.753906 331.429688 263.121094 339.671875 C 260.875 346.210938 258.164063 361.789063 257.546875 367 C 246.109375 367.230469 224.941406 360.410156 213.226563 356.25 M 188.960938 252.058594 C 192.53125 247.429688 196.441406 239.121094 198.363281 232.980469 C 200.363281 234.230469 201.992188 235.238281 202.890625 235.871094 C 203.507813 236.21875 215.941406 244.589844 223.339844 248.089844 C 256.023438 263.410156 276.511719 267.261719 298.808594 285.230469 C 290.660156 294.050781 282.394531 304.371094 277.28125 313.351563 C 230.539063 300.328125 194.015625 258.671875 188.960938 252.058594 M 170.777344 244.871094 C 151.472656 260.339844 119.648438 261.828125 100.035156 254.308594 C 97.53125 253.371094 94.738281 253.738281 92.574219 255.300781 C 79.480469 264.820313 65.164063 265.660156 53.285156 257.601563 C 41.464844 249.609375 35.484375 235.039063 38.734375 222.171875 C 43.378906 203.929688 65.191406 191.570313 98.605469 188.230469 C 102.066406 187.859375 104.902344 185.269531 105.5625 181.878906 C 111.546875 151.300781 131.445313 146.761719 150.671875 142.378906 L 158.9375 140.378906 C 162.871094 139.421875 165.246094 135.730469 164.730469 131.78125 C 164.003906 126.011719 169.027344 106.25 185.257813 93.710938 C 204.148438 79.109375 232.46875 78.75 267.136719 92.671875 C 269.144531 93.46875 271.386719 93.429688 273.351563 92.53125 C 275.324219 91.628906 276.8125 89.960938 277.546875 87.941406 C 286.214844 62.761719 303.480469 45.089844 326.105469 38.191406 C 349.332031 31.078125 374.933594 36.179688 396.339844 52.25 C 398.992188 54.238281 402.578125 54.351563 405.359375 52.550781 C 426.613281 38.910156 451.800781 34.558594 474.453125 40.558594 C 499.773438 47.269531 521.246094 66.269531 536.527344 95.570313 C 538.316406 99.03125 542.375 100.621094 546.089844 99.359375 C 569.824219 91.179688 589.152344 90.988281 601.945313 98.808594 C 614.0625 106.230469 618.261719 119.339844 619.648438 129.019531 C 619.976563 131.339844 621.300781 133.398438 623.316406 134.621094 C 625.292969 135.851563 627.742188 136.109375 629.960938 135.378906 C 655.148438 126.96875 680.460938 128.210938 697.664063 138.699219 C 708.96875 145.578125 715.960938 155.828125 717.917969 168.351563 C 718.492188 172.011719 721.527344 174.789063 725.230469 175.019531 C 747.234375 176.351563 762.847656 186.101563 768.050781 201.808594 C 772.695313 215.898438 767.929688 232 756.203125 241.871094 C 739.585938 255.890625 713.246094 254.96875 683.945313 239.339844 C 681.660156 238.121094 678.949219 238.121094 676.632813 239.289063 C 653.839844 251.039063 632.265625 251.828125 612.414063 241.640625 C 589.207031 229.671875 575.816406 206.230469 574.039063 194.140625 C 573.757813 192.058594 572.628906 190.171875 570.941406 188.910156 C 569.230469 187.671875 567.09375 187.160156 565.003906 187.480469 C 548.742188 190.101563 494.832031 194.671875 483.660156 143.011719 C 483.105469 140.480469 481.335938 138.359375 478.917969 137.378906 C 476.507813 136.421875 473.753906 138.28125 471.570313 139.699219 C 436.613281 162.96875 402.105469 161.308594 369.003906 134.75 C 365.867188 132.191406 361.292969 131.839844 358.460938 134.71875 C 320.789063 172.96875 289.824219 170.148438 274.714844 164.019531 C 271.199219 162.578125 267.15625 163.738281 265.105469 166.960938 C 250.496094 190.078125 219.152344 194.890625 197.296875 187.839844 C 194.710938 186.988281 191.859375 186.769531 189.796875 188.53125 C 187.675781 190.300781 186.675781 193 187.085938 195.710938 C 190.242188 217.121094 184.75 233.648438 170.777344 244.871094 M 434.753906 225.101563 C 431.207031 234.101563 429.839844 238.820313 428.496094 243.839844 C 431.246094 224.570313 426.015625 196.359375 420.417969 172.011719 C 437.238281 172.339844 454.265625 167.929688 471.183594 158.351563 C 472.492188 162.191406 474.246094 165.46875 475.953125 168.800781 C 466.417969 177.511719 443.621094 202.519531 434.753906 225.101563 M 513.898438 206.261719 C 514.492188 205.210938 515.199219 203.839844 515.917969 202.410156 C 529.761719 207 544.988281 208.21875 559.894531 206.578125 C 561.386719 211.46875 563.746094 216.671875 566.757813 221.898438 C 566.683594 221.941406 566.539063 222.011719 566.523438 222.03125 C 559.121094 225.550781 536.734375 240.851563 504.027344 259.089844 C 495.582031 263.78125 490.351563 268.289063 487.355469 271.359375 C 490.964844 266.53125 495.367188 260.128906 498.144531 253.050781 C 503.890625 238.300781 502.355469 226.46875 513.898438 206.261719 M 494.203125 211.261719 C 486.925781 226.871094 490.714844 247.089844 472.109375 265.449219 C 469.539063 263.328125 450.777344 254.378906 443.683594 251.511719 C 446.640625 226.679688 469.753906 195.640625 484.886719 182.839844 C 489.617188 188.199219 496.121094 192.859375 502.160156 196.128906 C 500.386719 199.191406 497.363281 204.480469 494.203125 211.261719 M 380.136719 208.648438 C 381.660156 184.738281 386.148438 168.488281 386.804688 165.449219 C 391.898438 167.878906 398.074219 169.980469 404.027344 171.488281 C 408.738281 181.460938 416.71875 221.28125 413.222656 245.230469 C 402.335938 244.230469 389.628906 244.46875 382.050781 245.230469 C 379.691406 240.949219 379.359375 221.480469 380.136719 208.648438 M 398.667969 257.828125 C 470.839844 257.828125 527.359375 314.371094 527.359375 386.5 C 527.359375 391.328125 527.007813 398.601563 526.097656 405.515625 C 518.320313 407.757813 510.601563 410.425781 503.191406 414.136719 C 465.949219 392.449219 415.078125 393.6875 379.777344 413.824219 C 357.996094 396.546875 308.886719 395.160156 271.878906 403.742188 C 270.753906 396.773438 270 389.898438 270 386.5 C 270 315.441406 327.621094 257.828125 398.667969 257.828125 M 330.496094 223.78125 C 339.648438 235.769531 347.902344 249.871094 349.675781 252.839844 C 341.964844 255.609375 328.414063 262.460938 320.566406 267.769531 C 305.890625 252.578125 294.507813 206.78125 287.148438 194.609375 C 284.355469 189.96875 282.378906 186.761719 280.832031 184.25 C 285.902344 186 293.996094 185.761719 298.753906 185.839844 C 300.175781 187.839844 312.839844 200.359375 330.496094 223.78125 M 363.503906 245.328125 L 364.050781 246.511719 C 364.050781 246.511719 352.554688 229.269531 351.171875 227.070313 C 347.234375 221.039063 342.113281 214.980469 336.382813 207.898438 C 327.390625 197.050781 319.488281 188.199219 313.394531 181.601563 C 328.453125 177.910156 345.640625 169.320313 364.15625 151.878906 C 366.132813 153.320313 368.109375 154.410156 370.125 155.671875 C 369.089844 161.578125 368.148438 166.960938 367.476563 170.859375 C 363.175781 194.160156 362.886719 212.078125 362.585938 219.761719 C 362.261719 227.050781 362.972656 238.550781 363.503906 245.328125 M 202.636719 206.691406 C 223.464844 209.960938 247.742188 205.101563 265.355469 189.230469 C 287.011719 223.820313 287.582031 255.140625 308.480469 276.730469 C 282.09375 251.160156 259.078125 251.679688 221.335938 231.300781 C 214.8125 227.769531 205.089844 221.480469 202.351563 220.089844 C 202.316406 220.050781 202.230469 219.988281 202.191406 219.96875 C 202.609375 216.789063 202.890625 213.511719 202.890625 209.941406 C 202.890625 208.921875 202.679688 207.730469 202.636719 206.691406 M 559.792969 270 C 535.003906 299.148438 522.527344 309.351563 518.164063 309.160156 C 513.410156 299.671875 502.890625 288.371094 495.773438 282.050781 C 504.703125 272.140625 543.441406 254.050781 561.304688 240.621094 C 563.953125 238.621094 571.78125 233.839844 575.121094 231.980469 C 579.765625 237.5 585.214844 242.730469 591.535156 247.230469 C 576.199219 255.769531 567.738281 260.679688 559.792969 270 M 810.195313 309.441406 C 805.566406 306.019531 756.203125 299.949219 748.515625 299.949219 C 740.996094 299.949219 698.386719 300.328125 681.914063 302.808594 C 656.347656 306.609375 612.695313 306.609375 579.546875 302.808594 C 567.539063 301.398438 554.265625 304.328125 543.398438 307.859375 C 545.539063 306.058594 547.824219 303.988281 550.578125 301.148438 C 560.363281 291.101563 571.328125 271.960938 590.765625 262.460938 C 595.691406 260.019531 600.257813 257.539063 604.746094 255.039063 C 621.039063 263.191406 646.785156 268.738281 678.757813 253.671875 C 726.460938 277.519531 754.917969 261.398438 764.984375 252.921875 C 777.300781 242.539063 784.171875 227.21875 784.171875 211.789063 C 784.171875 206.429688 783.320313 201.03125 781.605469 195.828125 C 774.734375 175.078125 755.816406 162.191406 729.839844 159.128906 C 728.351563 153.589844 725.996094 148.46875 723.152344 143.621094 C 726.1875 139.761719 729.050781 136.140625 730.90625 133.929688 C 733.164063 131.101563 740.996094 118.101563 720.015625 128.960938 C 718.914063 129.488281 716.9375 130.589844 714.351563 132.058594 C 711.425781 129.148438 708.195313 126.46875 704.480469 124.210938 C 684.910156 112.289063 658.460938 110.839844 631.210938 118.121094 C 627.386719 103.589844 620.214844 91.328125 608.765625 84.320313 C 596.777344 76.988281 581.671875 74.878906 563.871094 77.589844 C 564.984375 74.988281 565.984375 72.671875 566.839844 70.859375 C 574.738281 54.261719 570.492188 50.140625 562.15625 57.46875 C 552.78125 65.800781 546.867188 71.710938 542.359375 76.5 C 525.519531 49.46875 503.335938 31.21875 477.121094 24.289063 C 454.371094 18.25 429.839844 21.441406 407.679688 32.160156 C 406.355469 21.011719 404.90625 11.871094 403.300781 6.621094 C 399.160156 -6.839844 394.242188 3.71875 393.472656 7.871094 C 392.554688 13.488281 391.273438 21.191406 389.800781 30.140625 C 367.664063 18.320313 343.09375 15.039063 320.101563 22.078125 C 294.832031 29.839844 275.570313 48.640625 264.464844 74.800781 C 255.300781 71.53125 246.988281 69.550781 239.199219 68.191406 C 234.554688 62.101563 227.703125 54.390625 218.097656 46.011719 C 211.652344 40.320313 206.332031 43.25 210.199219 54.570313 C 211.714844 58.941406 213.042969 62.808594 214.257813 66.460938 C 196.222656 67.441406 183.066406 73.378906 174.222656 80.191406 C 156.714844 93.730469 149.578125 113.078125 148.148438 125.371094 C 147.128906 125.621094 145.761719 125.960938 145.761719 125.960938 C 131.082031 129.339844 111.246094 134.851563 98.835938 154.421875 C 96.628906 153.078125 95.039063 152.101563 94.371094 151.648438 C 57.367188 127.078125 74.441406 158.699219 88.757813 172.628906 C 39.523438 179.601563 25.644531 203.25 22.078125 217.300781 C 21.148438 220.851563 20.726563 224.53125 20.726563 228.179688 C 20.726563 244.121094 29.042969 260.148438 43.050781 269.648438 C 59.507813 280.789063 79.464844 280.070313 97.214844 268.738281 C 120.398438 276.210938 153.125 275.011719 176.609375 257.921875 C 190.148438 272.511719 201.113281 282.890625 207.035156 288.769531 C 221.804688 303.460938 243.4375 314.648438 254.511719 318.828125 C 243.566406 314.589844 225.347656 310.039063 207.121094 312.570313 C 167.761719 318.050781 141.664063 310.910156 124.804688 309.238281 C 97.023438 306.488281 68.5 311.269531 54.289063 311.269531 C 39.226563 311.269531 17.972656 318.339844 7.601563 319.890625 C -3.589844 321.570313 -2.863281 328.960938 12.714844 333.078125 C 28.160156 337.28125 57.070313 339.839844 64.90625 343.191406 C 90.039063 354.089844 132.0625 363.210938 161.703125 360.839844 C 182.722656 359.238281 203.890625 369.488281 209.324219 371.101563 C 219.75 374.300781 245.601563 381.359375 256.222656 381.160156 C 256.222656 380.519531 256.222656 396.078125 257.308594 403.457031 C 253.289063 404.769531 249.445313 406.183594 245.984375 407.757813 C 234.210938 400.605469 182.566406 379.660156 119.691406 405.730469 C 106.398438 401.132813 78.257813 385.640625 39.742188 398.292969 C -7.839844 414.019531 -0.128906 457.578125 15.566406 477.5625 C 36.789063 504.550781 76.058594 499.082031 87.492188 485.488281 C 113.042969 502.460938 139.113281 496.730469 158.015625 484.984375 C 170.453125 492.285156 231.65625 504.417969 278.164063 485.488281 C 284.523438 490.207031 310.042969 503.542969 342.808594 487.027344 C 361.746094 498.261719 393.023438 499.136719 409.089844 484.984375 C 414.921875 489.933594 432.386719 497.015625 469.601563 496.601563 C 514.28125 496.066406 524.640625 489.398438 530.902344 483.941406 C 540.542969 488.410156 565.601563 501.542969 596.648438 488.292969 C 613.394531 498.832031 646.898438 498.207031 664.867188 486.410156 C 697.707031 501.335938 757.9375 494.589844 772.996094 484.191406 C 799.960938 465.511719 786.925781 427.394531 757.222656 409.324219 C 698.875 379.910156 644.542969 402.722656 630.125 410.128906 C 612.949219 398.527344 576.960938 391.078125 539.621094 397.992188 C 540.21875 393.554688 539.550781 388.46875 539.550781 382.820313 C 539.550781 382.210938 539.445313 381.648438 539.445313 381.03125 C 546.839844 378.789063 557.371094 370.820313 578.785156 369.488281 C 607.949219 367.53125 676.730469 368.449219 711.105469 350.820313 C 730.714844 340.78125 798.984375 327.410156 808.109375 322.109375 C 817.488281 316.699219 815.003906 312.730469 810.195313 309.441406 "/>
</g>
<path style=" stroke:none;fill-rule:nonzero;fill:rgb(13.699341%,12.199402%,12.5%);fill-opacity:1;" d="M 102.011719 211.570313 C 88.234375 211.570313 77.1875 211.851563 67.492188 222.398438 C 57.101563 233.621094 59.648438 239.789063 57.710938 241.820313 C 54.859375 244.589844 47.765625 239.679688 47.890625 234.140625 C 48.492188 207.710938 80.421875 197.390625 99.339844 199.511719 C 106.546875 200.351563 108.421875 211.570313 102.011719 211.570313 "/>
<path style=" stroke:none;fill-rule:nonzero;fill:rgb(13.699341%,12.199402%,12.5%);fill-opacity:1;" d="M 158.082031 167.210938 C 137.9375 169.429688 132.042969 179.25 128.441406 190.558594 C 126.953125 194.808594 115.652344 191.75 117.445313 183.390625 C 122.789063 158.570313 149.726563 152.480469 159.511719 154.621094 C 162.804688 155.261719 161.777344 166.859375 158.082031 167.210938 "/>
<path style=" stroke:none;fill-rule:nonzero;fill:rgb(13.699341%,12.199402%,12.5%);fill-opacity:1;" d="M 245.886719 113.238281 C 210.128906 99.21875 192.1875 126.339844 186.398438 147.730469 C 185.601563 150.628906 173.613281 149.539063 175.328125 140.429688 C 179.46875 118.511719 200.90625 86.589844 249.855469 99.03125 C 255.878906 100.550781 252.328125 115.800781 245.886719 113.238281 "/>
<path style=" stroke:none;fill-rule:nonzero;fill:rgb(13.699341%,12.199402%,12.5%);fill-opacity:1;" d="M 379.679688 77.988281 C 346.730469 55.339844 320.839844 73.53125 307.101563 89.921875 C 300.515625 97.691406 293.660156 84.808594 296.460938 80.300781 C 308.316406 61.550781 348.9375 32.648438 384.984375 64.460938 C 389.015625 67.960938 384.1875 81.03125 379.679688 77.988281 "/>
<path style=" stroke:none;fill-rule:nonzero;fill:rgb(13.699341%,12.199402%,12.5%);fill-opacity:1;" d="M 514.9375 108.621094 C 512.210938 110.578125 510.59375 106.128906 508.765625 103.21875 C 479.414063 56.78125 426.273438 69.019531 411.996094 90.558594 C 409.125 94.941406 401.378906 83.089844 405.144531 76.921875 C 418.035156 55.960938 485.457031 36.441406 520.050781 95.75 C 523.726563 102.199219 518.832031 105.988281 514.9375 108.621094 "/>
<path style=" stroke:none;fill-rule:nonzero;fill:rgb(13.699341%,12.199402%,12.5%);fill-opacity:1;" d="M 597.597656 137.839844 C 589.285156 116.191406 573.664063 117.039063 555.011719 123 C 546.429688 125.808594 548.5 111.578125 551.339844 110.589844 C 569.222656 104.261719 599.691406 101.449219 607.828125 131.339844 C 610.140625 139.691406 599.886719 143.691406 597.597656 137.839844 "/>
<path style=" stroke:none;fill-rule:nonzero;fill:rgb(13.699341%,12.199402%,12.5%);fill-opacity:1;" d="M 694.410156 184.359375 C 679.585938 157.148438 655.636719 157.179688 635.632813 164.839844 C 631.148438 166.589844 627.113281 155.191406 634.207031 151.160156 C 653.476563 140.128906 692.921875 142.101563 705.183594 177.289063 C 707.277344 183.269531 699.347656 193.421875 694.410156 184.359375 "/>
<path style=" stroke:none;fill-rule:nonzero;fill:rgb(13.699341%,12.199402%,12.5%);fill-opacity:1;" d="M 755.964844 227.28125 C 754.808594 231.820313 743.613281 232.128906 744.015625 227.460938 C 745.726563 205.160156 734.703125 203.359375 720.003906 203.511719 C 714.476563 203.648438 714.871094 191.660156 719.085938 190.710938 C 738.90625 186.140625 762.710938 200.628906 755.964844 227.28125 "/>
<path style=" stroke:none;fill-rule:nonzero;fill:rgb(13.699341%,12.199402%,12.5%);fill-opacity:1;" d="M 370.515625 342.621094 C 370.113281 350.890625 363.078125 357.238281 354.785156 356.808594 C 346.527344 356.421875 340.191406 349.328125 340.617188 341.128906 L 340.75 339.460938 C 339.476563 337.488281 332.742188 335.339844 322.742188 341.398438 C 317.71875 344.46875 312.078125 342.328125 320.796875 334.789063 C 330.097656 326.738281 338.867188 322.058594 346.632813 321.109375 L 346.859375 321.058594 C 359.945313 320.160156 376.929688 322.800781 384.875 326.039063 C 388.160156 327.390625 384.742188 343.578125 384 343.371094 C 381.289063 342.789063 375.402344 340.308594 370.488281 341.421875 L 370.515625 342.621094 "/>
<path style=" stroke:none;fill-rule:nonzero;fill:rgb(13.699341%,12.199402%,12.5%);fill-opacity:1;" d="M 413.425781 387.480469 C 410.796875 395.105469 383.757813 397.542969 378.796875 387.601563 C 376.835938 383.671875 374.121094 373.511719 377.792969 375.601563 C 383.800781 379.101563 405.554688 376.648438 409.675781 375.601563 C 413.304688 374.679688 410.9375 369.621094 413.179688 370.230469 C 415.878906 370.980469 415.878906 380.261719 413.425781 387.480469 "/>
<path style=" stroke:none;fill-rule:nonzero;fill:rgb(13.699341%,12.199402%,12.5%);fill-opacity:1;" d="M 477.058594 345.160156 C 470.269531 339.558594 461.359375 337.101563 457.957031 339.558594 L 458.082031 340.691406 C 458.773438 348.941406 452.699219 356.179688 444.484375 356.949219 C 436.207031 357.691406 428.941406 351.53125 428.234375 343.320313 L 428.234375 342.679688 C 422.871094 340.96875 414.285156 343.941406 413.109375 343.480469 C 412.429688 343.171875 408.785156 327.921875 413.511719 326.011719 C 426.441406 320.738281 468.046875 318.148438 480.136719 341.519531 C 481.546875 344.351563 480.664063 348.128906 477.058594 345.160156 "/>
<path style=" stroke:none;fill-rule:nonzero;fill:rgb(13.699341%,12.199402%,12.5%);fill-opacity:1;" d="M 2.582031 550.386719 L 2.582031 965.730469 C 2.582031 1103.03125 36.898438 1198.03125 110.226563 1264.859375 C 183.0625 1331.160156 292.152344 1364.839844 398.8125 1390 C 508.355469 1364.140625 613.78125 1331.832031 687.339844 1264.859375 C 760.710938 1198.03125 794.804688 1103.03125 794.804688 965.730469 L 794.804688 550.386719 Z M 612.777344 1036.75 L 612.777344 1166.949219 C 612.777344 1166.949219 601.589844 1159.148438 576.574219 1166.328125 C 557.246094 1171.839844 550.273438 1166.511719 550.273438 1166.511719 L 550.273438 1037.460938 C 561.320313 1039.359375 580.164063 1031.789063 599.464844 1031.179688 C 609.828125 1030.828125 612.777344 1036.75 612.777344 1036.75 M 694.84375 1037.460938 L 694.84375 1166.511719 C 694.84375 1166.511719 687.871094 1171.839844 668.539063 1166.328125 C 643.519531 1159.148438 632.390625 1166.949219 632.390625 1166.949219 L 632.390625 1036.75 C 632.390625 1036.75 635.273438 1030.828125 645.671875 1031.179688 C 664.945313 1031.789063 683.753906 1039.359375 694.84375 1037.460938 M 729.6875 1182.878906 L 729.6875 1047.339844 L 710.738281 1047.339844 L 710.738281 1020.019531 C 691.480469 1024.601563 660.140625 1014.128906 646.101563 1014.128906 C 630.640625 1014.128906 622.582031 1020.949219 622.582031 1020.949219 C 622.582031 1020.949219 614.679688 1014.160156 599.058594 1014.128906 C 585.011719 1014.128906 553.652344 1024.699219 534.449219 1020.019531 L 534.449219 1047.339844 L 515.46875 1047.339844 L 515.46875 1197.210938 L 604.199219 1197.210938 L 604.199219 1208.359375 L 640.957031 1208.359375 L 640.957031 1197.210938 L 720.777344 1197.210938 C 707.894531 1216.53125 692.511719 1234.21875 673.988281 1251.128906 C 621.632813 1299.03125 544.316406 1329.191406 466.285156 1351.769531 L 466.285156 975.785156 L 775.878906 975.785156 L 775.878906 988.425781 C 771.265625 1073.25 758.1875 1133.609375 729.6875 1182.878906 M 450.09375 1356.648438 L 398.8125 1369.699219 L 347.386719 1356.460938 L 347.386719 958.550781 L 21.546875 958.550781 L 21.546875 867.203125 L 347.386719 867.203125 L 347.386719 569.289063 L 450.09375 569.289063 L 450.09375 867.203125 L 775.878906 867.203125 L 775.878906 958.550781 L 450.09375 958.550781 Z M 186.847656 1166.949219 L 186.847656 1036.75 C 186.847656 1036.75 189.785156 1030.828125 200.125 1031.179688 C 219.421875 1031.789063 238.285156 1039.359375 249.359375 1037.460938 L 249.359375 1166.511719 C 249.359375 1166.511719 242.367188 1171.839844 223.035156 1166.328125 C 198.019531 1159.148438 186.847656 1166.949219 186.847656 1166.949219 M 104.773438 1166.511719 L 104.773438 1037.460938 C 115.820313 1039.359375 134.679688 1031.789063 153.980469 1031.179688 C 164.320313 1030.828125 167.273438 1036.75 167.273438 1036.75 L 167.273438 1166.949219 C 167.273438 1166.949219 156.097656 1159.148438 131.070313 1166.328125 C 111.738281 1171.839844 104.773438 1166.511719 104.773438 1166.511719 M 331.230469 1351.519531 C 251.539063 1328.160156 174.152344 1296.800781 124.816406 1250.589844 C 107.257813 1234.101563 92.316406 1216.351563 79.667969 1197.210938 L 158.679688 1197.210938 L 158.679688 1208.359375 L 195.410156 1208.359375 L 195.410156 1197.210938 L 284.117188 1197.210938 L 284.117188 1047.339844 L 265.214844 1047.339844 L 265.214844 1020.019531 C 245.984375 1024.601563 214.636719 1014.128906 200.605469 1014.128906 C 185.132813 1014.128906 177.097656 1020.949219 177.097656 1020.949219 C 177.097656 1020.949219 169.171875 1014.160156 153.53125 1014.128906 C 139.511719 1014.128906 108.128906 1024.699219 88.945313 1020.019531 L 88.945313 1047.339844 L 69.96875 1047.339844 L 69.96875 1181.359375 C 39.816406 1128.511719 25.277344 1065.238281 22.175781 987.695313 L 21.546875 975.785156 L 331.230469 975.785156 Z M 21.546875 569.289063 L 331.253906 569.289063 L 331.253906 849.964844 L 21.546875 849.964844 Z M 466.285156 569.289063 L 775.878906 569.289063 L 775.878906 849.964844 L 466.285156 849.964844 L 466.285156 569.289063 "/>
<path style=" stroke:none;fill-rule:nonzero;fill:rgb(13.699341%,12.199402%,12.5%);fill-opacity:1;" d="M 249.34375 761.886719 C 249.34375 761.886719 242.367188 767.21875 223.023438 761.722656 C 198.007813 754.585938 186.832031 762.421875 186.832031 762.421875 L 186.832031 632.234375 C 186.832031 632.234375 189.785156 626.292969 200.148438 626.632813 C 219.4375 627.1875 238.285156 634.800781 249.34375 632.863281 Z M 167.21875 762.421875 C 167.21875 762.421875 156.09375 754.585938 131.070313 761.722656 C 111.726563 767.21875 104.75 761.886719 104.75 761.886719 L 104.75 632.863281 C 115.808594 634.800781 134.660156 627.1875 153.929688 626.632813 C 164.308594 626.292969 167.21875 632.234375 167.21875 632.234375 Z M 265.203125 642.785156 L 265.203125 615.527344 C 245.972656 620.074219 214.609375 609.582031 200.59375 609.582031 C 185.121094 609.582031 177.085938 616.378906 177.085938 616.378906 C 177.085938 616.378906 169.15625 609.640625 153.519531 609.582031 C 139.511719 609.5625 108.117188 620.160156 88.890625 615.527344 L 88.890625 642.785156 L 69.960938 642.785156 L 69.960938 792.640625 L 158.679688 792.640625 L 158.679688 803.773438 L 195.441406 803.773438 L 195.441406 792.640625 L 284.117188 792.640625 L 284.117188 642.785156 L 265.203125 642.785156 "/>
<path style=" stroke:none;fill-rule:nonzero;fill:rgb(13.699341%,12.199402%,12.5%);fill-opacity:1;" d="M 692.476563 761.886719 C 692.476563 761.886719 685.460938 767.21875 666.117188 761.722656 C 641.078125 754.585938 629.949219 762.421875 629.949219 762.421875 L 629.949219 632.234375 C 629.949219 632.234375 632.921875 626.292969 643.261719 626.632813 C 662.53125 627.1875 681.402344 634.800781 692.476563 632.863281 Z M 610.335938 762.421875 C 610.335938 762.421875 599.164063 754.585938 574.207031 761.722656 C 554.824219 767.21875 547.84375 761.886719 547.84375 761.886719 L 547.84375 632.863281 C 558.910156 634.800781 577.792969 627.1875 597.066406 626.632813 C 607.457031 626.292969 610.335938 632.234375 610.335938 632.234375 Z M 710.738281 642.785156 L 710.738281 615.527344 C 691.480469 620.074219 660.117188 609.582031 646.117188 609.582031 C 630.640625 609.582031 622.582031 616.378906 622.582031 616.378906 C 622.582031 616.378906 614.679688 609.640625 599.039063 609.582031 C 585.011719 609.5625 553.636719 620.160156 534.398438 615.527344 L 534.398438 642.785156 L 515.511719 642.785156 L 515.511719 792.640625 L 604.175781 792.640625 L 604.175781 803.773438 L 640.976563 803.773438 L 640.976563 792.640625 L 729.648438 792.640625 L 729.648438 642.785156 L 710.738281 642.785156 "/>
<path style=" stroke:none;fill-rule:nonzero;fill:rgb(88.198853%,10.598755%,13.299561%);fill-opacity:1;" d="M 347.390625 1356.460938 L 398.792969 1369.730469 L 450.09375 1356.648438 L 450.09375 958.550781 L 775.859375 958.550781 L 775.859375 867.203125 L 450.09375 867.203125 L 450.09375 569.289063 L 347.390625 569.289063 L 347.390625 867.203125 L 21.421875 867.203125 L 21.421875 958.550781 L 347.390625 958.550781 L 347.390625 1356.460938 "/>
<path style=" stroke:none;fill-rule:nonzero;fill:rgb(88.198853%,10.598755%,13.299561%);fill-opacity:1;" d="M 197.457031 410.105469 C 164.253906 407.242188 131.601563 419.101563 133.640625 421.132813 C 138.722656 426.210938 152.4375 466.066406 169.746094 473.761719 C 222.203125 488.515625 273.09375 473.898438 268.03125 467.542969 C 254.101563 450.019531 253.953125 414.917969 197.457031 410.105469 "/>
<path style=" stroke:none;fill-rule:nonzero;fill:rgb(88.198853%,10.598755%,13.299561%);fill-opacity:1;" d="M 453.394531 412.992188 C 420.210938 410.15625 387.488281 421.921875 389.546875 423.953125 C 394.652344 429.058594 408.386719 468.921875 425.65625 476.640625 C 478.175781 491.4375 529.066406 476.792969 523.984375 470.382813 C 510.085938 452.902344 509.921875 417.777344 453.394531 412.992188 "/>
<path style=" stroke:none;fill-rule:nonzero;fill:rgb(88.198853%,10.598755%,13.299561%);fill-opacity:1;" d="M 680.613281 474.714844 C 733.066406 489.53125 767.679688 475.765625 772.636719 465.144531 C 778.246094 453.105469 764.8125 415.875 708.296875 411.085938 C 675.101563 408.273438 642.46875 420.042969 644.527344 422.074219 C 649.582031 427.15625 663.300781 467.023438 680.613281 474.714844 "/>
</g>
</svg>
