<?xml version="1.0" encoding="UTF-8"?>
<svg id="Layer_1" data-name="Layer 1" xmlns="http://www.w3.org/2000/svg" viewBox="0 0 1196 1528">
  <path d="M651,1679H-308V-119H1490V1679H651M57.15,489.5c0,139.83,.18,279.65-.15,419.48-.07,28.55,2.42,56.7,6.88,84.84,6.7,42.26,16.87,83.6,31.18,123.92,29.32,82.6,74.28,155.48,136.22,217.63,47.81,47.97,102.52,86.41,163,116.76,55.89,28.05,114.4,48.48,175.79,60.53,7.29,1.43,14.82,3.2,22.1,2.7,9.16-.63,18.17-3.38,27.23-5.3,77.52-16.47,150.69-44.19,218.74-84.99,59.34-35.58,111.25-79.83,154.64-133.85,52.16-64.94,87.81-138.25,108.96-218.54,7.41-28.12,12.66-56.84,17.94-85.47,2.82-15.3,5.06-30.98,5.08-46.5,.31-249.82,.22-499.64,.22-749.46v-5.53c-1.41-.24-2.36-.48-3.32-.56-12.59-1.07-25.18-2.1-37.77-3.18-26.49-2.27-52.96-4.79-79.48-6.76-27.36-2.03-54.76-3.64-82.15-5.21-35.86-2.06-71.72-4.13-107.61-5.77-29.58-1.35-59.19-2.33-88.79-3.01-35.29-.81-70.59-1.4-105.89-1.57-37.65-.19-75.31,.11-112.97,.4-25.64,.2-51.29,.46-76.92,1.21-34.26,1-68.5,2.41-102.75,3.82-21.77,.9-43.54,1.95-65.29,3.25-22.57,1.36-45.13,3.05-67.68,4.7-22.55,1.65-45.1,3.19-67.62,5.25-21.18,1.93-42.28,4.71-63.46,6.55-5.08,.44-6.23,1.78-6.22,6.7,.15,99,.11,197.99,.11,297.99Z" style="fill: #fff;"/>
  <path d="M57.15,489c0-99.5,.04-198.49-.11-297.49,0-4.92,1.14-6.26,6.22-6.7,21.18-1.84,42.28-4.62,63.46-6.55,22.51-2.05,45.07-3.59,67.62-5.25,22.55-1.65,45.11-3.34,67.68-4.7,21.75-1.31,43.52-2.36,65.29-3.25,34.24-1.41,68.49-2.82,102.75-3.82,25.63-.75,51.28-1.01,76.92-1.21,37.65-.29,75.31-.59,112.97-.4,35.3,.18,70.6,.77,105.89,1.57,29.61,.68,59.21,1.66,88.79,3.01,35.88,1.64,71.75,3.71,107.61,5.77,27.39,1.57,54.79,3.18,82.15,5.21,26.51,1.97,52.99,4.5,79.48,6.76,12.59,1.08,25.18,2.11,37.77,3.18,.96,.08,1.9,.32,3.32,.56v5.53c0,249.82,.09,499.64-.22,749.46-.02,15.51-2.25,31.19-5.08,46.5-5.28,28.62-10.53,57.35-17.94,85.47-21.16,80.29-56.81,153.6-108.96,218.54-43.39,54.02-95.29,98.27-154.64,133.85-68.05,40.8-141.21,68.53-218.74,84.99-9.06,1.92-18.07,4.67-27.23,5.3-7.27,.5-14.81-1.27-22.1-2.7-61.38-12.05-119.9-32.48-175.79-60.53-60.47-30.35-115.19-68.79-163-116.76-61.94-62.15-106.9-135.03-136.22-217.63-14.31-40.31-24.48-81.65-31.18-123.92-4.46-28.14-6.95-56.29-6.88-84.84,.32-139.83,.15-279.65,.15-419.98m501.8,640.64c.23,.3,.45,.61,.68,.91-.07-.66-.15-1.32-.39-2.73-8.45-29.01-7.03-57.8,2.94-86.06,8.36-23.7,17.64-47.08,26.53-70.6,1.06-2.8,2.26-5.55,3.4-8.32l1.51,.09c15.03,29.71,20.89,61.9,24.8,94.85,12.83-10.1,17.42-26.96,30.99-37.56,4.39,18.12,8.57,35.36,12.75,52.57,17.74-32.35,11.65-64.39-.54-96.76,9.28,3,9.49,13.93,16.54,19.67,3.24-7.87,2.13-15.46,.46-22.79-1.22-5.34-2.73-11.23-6.03-15.34-7-8.71-12.56-17.92-15.11-28.78-.66-2.81-.1-5.92-.1-10.32,7.11,8.92,8.53,20.18,18.14,25.6,1.44-10.37,2.91-20.05,4.09-29.77,1.45-11.87,3.15-23.71-2.74-35.13-5.39-10.45-11.88-19.98-20.61-27.91-8.4-7.64-15.28-24.65-13.4-34.68,5.22,7.33,10,14.04,14.78,20.75,.47-.26,.95-.51,1.42-.77,2.19-10.02,1.7-20.18-1.25-29.84-2.88-9.42-7.37-18.36-11.2-27.61,10.16,2.54,11.54,14.42,20.02,19.34,6.22-17.62,13.62-34.61,2.72-52.93,4.03,2.93,7.19,6.26,10.7,9.16,3.55,2.93,7.47,5.29,13,2.17-11.79-6.56-16.16-16.75-17.17-29.04-.69-8.42-2.02-16.77-6.92-24.08-.79-1.18-.75-2.91-1.21-4.88,15.14,7.52,19.7,6.88,22.68-2.99-7.32,.98-13.42-.83-16.61-7.97-1.33-2.98-2.51-6.24-2.74-9.44-.53-7.56-4.58-12.19-11.09-15.2-1.33-.61-2.68-1.19-4.52-2.01,5.78-1.48,11.07-2.63,16.24-4.2,5.38-1.64,10-4.62,12.76-9.7,2.66-4.9,3.44-10.07,1.62-15.87-10.93,11.84-18.08,14.45-29.4,10.84,5.94-2.9,9.45-7.18,8.98-14.77-15.09,8.04-28.53,2.47-42.17-3.27-8.34-3.51-16.93-6.83-25.73-8.78-12.79-2.83-31.47,4.07-35.84,16.45-1.31,3.71-3.81,3.73-6.42,.97-.69-.73-1.32-1.5-2.03-2.2-2.76-2.7-6.34-3.21-9.01-.94-1.67,1.42-2.67,4.94-2.26,7.2,.66,3.65,2.75,7.03,4.22,10.54,.92,2.21,1.8,4.43,2.74,6.75-6.95,1.38-9.35,.48-12-4.87-1.98-3.99-3.4-8.26-5.2-12.34-1.51-3.42-3.84-4.12-7.17-2.1-7.1,4.33-12.97,9.81-16.98,17.17-6.27,11.5-3.18,23.4,7.93,30.52,1.65-8.46,7.74-14.34,16-15.46,5.84-.79,12.41,3.52,16.11,10.61,.46,.88,.93,1.79,1.13,2.74,.79,3.67,2.88,4.59,6.65,4.64,15,.23,26.49,6.41,32.92,20.64,.65,1.43,2.61,2.48,4.19,3.25,6.35,3.08,13.36,5.16,19.05,9.14,7.67,5.38,8.99,15.82,4.14,23.6-1.46-1.91-2.81-3.76-4.24-5.54-11.73-14.53-25.59-17.87-40.7-9.48-7.81,4.33-15.34,9.14-25.12,5.85,3.4,9.55,11.03,13.74,20.1,11.97,3.38-.66,7-.85,10.41-.43,4.86,.6,8.89,3.05,10.43,8.07,1.5,4.89-.53,9.61-5.23,12.97-1.45,1.03-3.01,1.9-5.82,3.66,3.75,1.31,6.46,3.18,9.03,3.01,12.2-.81,18.83-9.79,25.42-19.09,3.28,14.01-1.64,24.58-15.22,30.02-9.54,3.83-19.86,5.73-29.86,8.5,1.02,4.33,1.1,4.4,12.35,9.3-34.45,6.36-53.07,31.81-46.72,65.51,7.34-4.68,14.27-9.1,21.21-13.52,.53,.42,1.06,.85,1.59,1.27-.91,2-1.41,4.35-2.79,5.94-11.36,13.02-20.27,27.46-25.31,44.04-5.66,18.61-6.51,37.06,3.54,55.95,2.7-3.14,5.36-5.62,7.23-8.59,1.98-3.14,3.2-6.76,4.74-10.13,4.34,1.37,5.8,3.24,6.05,7.39,.5,8.39-3.55,15.18-8.37,21.28-4.6,5.81-6.96,12.18-8.35,19.27-2.4,12.3,1.19,20.41,12.05,24.28,1.6-4.02,3.57-7.98,4.74-12.17,1.17-4.21,1.55-8.64,2.38-13.58,6.16,2.63,6.75,7.85,7.35,12.54,.43,3.39,.67,8.83-1.23,10.14-8.63,5.96-11.67,14.58-13.6,23.96-4.03,19.61-1.96,39.01,2.66,58.23,3.09,12.83,6.94,25.42,14.32,37.19m-226.96,77.69c-.25-.01-.5-.03-.74-.04,.16,.34,.31,.67,.56,1.72,.91,1.77,1.7,3.61,2.76,5.29,17.57,27.77,42.65,46.96,70.9,62.75,14.79,8.27,29.12,8.3,43.94,.49,9.82-5.18,19.87-9.92,29.85-14.8,18.12-8.85,36.96-12.72,56.92-7.67,21.89,5.54,37.9,17.9,45.06,40.01,.94,2.91,.73,6.18,1.06,9.29-.55,.15-1.1,.29-1.64,.44-1.18-1.49-2.23-3.12-3.56-4.46-6.28-6.35-12.13-13.27-19.1-18.77-8.65-6.82-19.03-10.65-30.21-9.28-22.54,2.77-37.33,17.17-50.29,34.81,.04,.2,.07,.41,.11,.61,.13-.03,.37-.05,.37-.09,.01-.23-.03-.46,.67-.27,10.36-2.07,20.64-5.31,31.08-5.96,20.86-1.28,40.74,3.84,59.84,12.24,4.24,1.86,4.54,4.46,2.19,7.22-10.55,12.36-20.98,24.87-32.31,36.5-4.94,5.08-12.11,7.28-19.78,5.88-10.58-1.92-17.23-8.97-22.55-17.43-6.35-10.09-14.85-17.76-25.94-21.57-10.24-3.52-20.93-6.54-31.65-7.64-12.67-1.3-25.58-.31-37.57-.31,9.28,6.42,19.64,12.28,28.45,19.94,17.05,14.84,33.56,30.34,49.66,46.21,13.62,13.43,28.89,16.13,46,9.08,7.13-2.94,14.29-6.57,20.28-11.34,13.89-11.08,27.06-23.07,40.58-34.63,1.9-1.63,4.11-2.89,7.45-5.21-.85,18.05,7.93,30.91,15.77,44.2,1.98,3.35,3.24,7.23,4.24,11.03,1.62,6.09-.82,10.95-6.89,12.24-4.91,1.05-10.22,1.09-15.25,.54-5.38-.59-10.63-2.38-16.58-3.81,8.58,11.58,17.44,21.84,30.12,27.9,12.32,5.89,23.35,3.36,32.61-7.22,8.64-9.87,9.31-19.7,1.51-31.33-3.88-5.78-8.84-10.82-12.8-16.55-4.49-6.49-9.6-12.93-12.28-20.18-3.84-10.41,5.6-19.83,16.22-17,4.42,1.18,8.77,3.12,12.71,5.46,11.69,6.96,23,14.57,34.78,21.37,5.8,3.34,12.08,6.67,18.54,7.9,23.59,4.5,42.15-3.9,56.28-23.28,7.18-9.86,13.63-21.09,28.21-22.27-19.46-20.72-50.01-19.77-65.51-2.04-6.67,7.63-15.62,10.26-25.79,7.71-11.27-2.82-20.6-8.97-28.83-16.86-4.45-4.26-9.25-7.77-15.47-8.2-6.15-.42-12.35-.09-19.18-.09,.8-1.45,1.33-3.2,2.46-4.35,9.15-9.3,20.06-13.87,33.27-11.9,5.25,.79,10.47,1.87,15.75,2.33,23.19,2.01,46.05-.2,68.58-5.92,19.99-5.07,39.02-11.94,53.49-27.74,10.67-11.65,21.54-23.13,32.8-35.06,.17-.35,.33-.69,.5-1.04-.64,.17-1.28,.35-2.64,.64-18.25,9.41-36.65,18.53-54.72,28.29-24.07,13-47.64,13.6-71.13-1.24-2.16-1.37-4.83-1.91-7.2-2.97-1.12-.5-2.72-1.14-2.98-2.04-.28-.95,.44-2.86,1.3-3.36,3.55-2.04,7.22-3.95,11.02-5.46,7.67-3.03,16.07-4.71,23.06-8.83,16.83-9.93,33.26-20.6,49.41-31.62,20.76-14.16,42.8-25.36,67.57-30.1,19.52-3.74,39.31-6.03,58.87-9.53,25.54-4.58,47.18-16.15,63.37-37,6.59-8.48,12.99-17.27,23.61-21.67-4.2-3.05-6.93-3.48-11.25-1.45-2.99,1.41-5.66,3.54-8.7,4.8-2.45,1.02-5.24,1.21-7.87,1.77-.22-.54-.44-1.07-.67-1.61,.77-1.4,1.48-2.83,2.33-4.18,8.98-14.2,15.64-29.22,16.4-46.32,.31-6.99,3.59-12.67,7.77-17.97,2.88-3.65,5.78-7.28,8.67-10.91-2.34-.23-4.13,.11-5.77,.8-24.76,10.38-46.02,24.7-58.91,49.47-10.11,19.42-24.11,35.74-41.97,48.7-20.12,14.6-42.06,25.82-64.73,35.77-.56,.25-1.32,.03-3.3,.03,14.05-14.57,26.21-28.89,30.26-48.6,3.85-18.76,8.98-37.23,3.52-57.23-9,8.95-15.84,18.04-18.11,30.03-.85,4.52-2.43,8.93-3.94,13.3-6.96,20.09-16.29,38.66-34.93,50.61-15.77,10.11-29.41,22.33-41.92,36.36-12.83,14.4-28.32,25.69-48.89,27.51,0,0-.34-.34-.28-1.08,2.69-8.46,8.23-14.4,15.58-19.33,8.73-5.85,14.94-14.26,19.39-23.69,5.01-10.61,9.41-21.51,14.04-32.3,7.47-17.41,19.03-30.22,38.48-34.77-5.4-.61-11.15-1.89-15.96-.32-7.43,2.43-14.25,6.75-21.28,10.38-2.81,1.45-5.47,3.17-8.49,4.94-.23-1.21-.32-1.39-.27-1.48,.39-.72,.77-1.45,1.21-2.14,6-9.33,9.48-19.52,8.36-30.62-1.46-14.56-3.66-29.05-5.6-44.03-7.03,5.21-11.94,11.25-13.47,20.12-1.62,9.41-3.27,19.01-6.64,27.87-3.27,8.58-9.08,16.16-13.1,24.5-2.51,5.22-4.31,10.93-5.45,16.61-1.1,5.46-.32,11.3-1.46,16.74-3.36,15.93-13.01,28.48-23.12,40.66-4.61,5.55-9.4,10.96-14.49,16.88-2.91-12.75-1.27-23.94,6.37-33.31,4.76-5.84,11.25-10.25,16.59-15.67,2.3-2.33,4.58-5.37,5.27-8.45,1.38-6.14-1.76-16.28-5.6-21.66-8.14,23.86-19.27,35.84-31.44,33.19,1.35-2.58,2.65-5.03,3.92-7.5,5.96-11.62,12.49-23,17.69-34.96,4.61-10.6,6.66-22.15,3.45-33.58-1.96-6.98-5.65-13.47-8.57-20.21-12.63,13.11-17.23,29.63-19.33,47.23-1.86,15.55-6.21,30.43-16.09,42.72-12.48,15.53-19.38,33.4-24.79,52.13-.72,2.5-1.59,4.97-2.39,7.45-.63-7.43-.72-14.58-.61-21.72,.16-10.66,2.67-20.55,8.77-29.58,5.2-7.69,9.84-15.77,14.42-23.85,7.25-12.79,10.75-26.52,7.82-41.13-2.97-14.82-6.75-29.48-10.35-44.95-23.95,17.65-33.74,41.9-37.69,69.46-.8-2.81-1.21-5.54-1.58-8.27-1.72-12.69-3.78-25.49-.35-38.08,4.03-14.82,4.01-29.59,.81-44.36-2.46-11.34-5.81-22.5-8.99-34.57-7.03,8.26-16.3,28.16-20.88,44.61-13.65,49.12-7.17,97.22,8.54,146.01-1.55-1.36-2.07-1.72-2.47-2.19-10.41-12.51-20.67-25.16-31.26-37.52-7.25-8.46-12.46-17.61-15.11-28.67-7.48-31.2-20.52-59.89-42.12-84-10.9-12.17-24.08-20.94-42.1-22.43,2.72,2.54,4.81,4.41,6.8,6.37,5.97,5.88,12.24,12,12.88,20.73,.98,13.38,.85,26.84,1.08,40.26,.15,8.61-.92,17.37,.32,25.81,3.04,20.76,14.71,36.92,30.72,49.6,13.65,10.81,28.36,20.3,42.65,30.29,10.62,7.43,21.77,14.24,29.3,25.22,4.02,5.86,6.03,12.21,4.42,19.61-4.78-5.69-8.98-11.27-13.77-16.27-13.06-13.62-29.17-23.08-45.66-31.73-19.74-10.35-38.91-21.52-56.45-35.29-9.49-7.45-14.17-17.17-12.79-29.64,.81-7.36,1.26-14.86,.8-22.23-.4-6.24,.12-13.54-6.6-17.36-11.33-6.45-18.67-15.96-22.65-28.68-11.34,10.42-16.98,22.7-15.81,37.56,.73,9.24,2.61,18.38,3.66,27.59,.83,7.32,1.56,14.72-2.23,22.64-2.64-2.16-4.72-4.72-6.65-7.38-4.98-6.86-9.59-14.01-14.91-20.6-9.59-11.89-15.12-25.54-18.62-40.18-3.63-15.18-7.67-30.21-16.01-43.64-1.43-2.3-3.19-4.38-4.8-6.57-.46,.14-.92,.28-1.38,.42-.42,4.52-.89,9.04-1.26,13.56-2.08,25.77,.5,50.71,13.22,73.84,.6,1.09,1.26,2.55,1.01,3.63-1.44,6.22-7.44,9.27-13.45,7.01-1.08-.41-2.13-.9-3.19-1.38-16.73-7.55-28.8-19.67-35.78-37.22-11.39,10.16-11.26,21.91-6.5,34.99-4.43-3.3-8.62-6.6-11.7-10.72-6.35-8.51-7.91-18.79-9.12-29.03-1.42-12.02-2.14-24.16-4.19-36.08-3.1-18.05-15.43-27.47-32.09-25.19,8.92,11.03,7.6,23.49,5.82,36.19-1.17,8.32-2.66,16.87-1.9,25.12,1.09,11.8,8.01,21.38,16.18,29.62,6.57,6.64,13.88,12.55,19.16,17.26-8.27-.99-18.54-2.86-28.86-3.25-8.08-.3-15.52,2.64-20.7,10.22,1.63,.67,2.78,1.25,3.99,1.63,22.1,6.81,43.92,14.85,66.39,20.07,28.02,6.51,56.47,11.49,84.96,15.56,13.56,1.94,25.91,5.01,36.54,13.74,1.44,1.19,2.73,2.56,4.09,3.85-.2,.47-.39,.95-.59,1.42-13.03-2.91-25.98-7.12-39.46-4.55-13.56,2.58-24.97,9.44-34.42,17.69,9.04,5.4,18.39,10.59,27.32,16.41,13.51,8.8,27.12,9.6,41.29,1.9,1.72-.93,3.65-1.66,5.57-2.01,11.88-2.15,23.72-4.68,35.68-6.11,23.65-2.83,46.29,1.03,67.57,12.03,13.24,6.85,24.12,16.7,34.53,27.44-2.97-.21-5.69-.97-8.35-1.92-14.93-5.34-29.58-11.73-44.84-15.87-25.13-6.83-49.89-5.98-73.06,8-7.52,4.54-16.09,6.1-24.81,6.26-17.44,.31-33.88-4.18-49.33-11.82-11.1-5.49-21.64-12.11-32.55-18.78m388.04-453.21c-.26,.06-.52,.12-.78,.18,.2,.28,.41,.56,.69,1.57,8.91,15.91,6.66,26.44-8.83,35.52-2.71,1.59-4.6,5.11-6.1,8.12-2.35,4.72-3.79,9.89-6.08,14.64-3.44,7.12-7.99,9.31-15.85,7.8-3.32-.64-6.5-1.95-9.54-2.9-1.53,7.97-2.67,15.87-4.71,23.52-.84,3.13-.36,4.68,1.84,6.7,8.8,8.06,16.2,17.19,19.94,28.76,4.41,13.65,1.43,27.32-.04,40.99-1.79,16.74-4.74,33.22,.88,50.2,4.65,14.05,3.97,28.57-6.78,40.76-.64,.73-.85,2.08-.81,3.12,.84,18.26,5.33,35.25,16.65,50.12,2.62,3.44,4.96,7.75,5.55,11.93,1.05,7.52,.34,15.27,1.02,22.86,.47,5.29,2.03,10.48,3.28,16.55,4-8.27,6.47-15.83,10.88-21.99,8.8-12.3,12.4-25.9,12.86-40.6,.16-5.33,1.86-9.79,5.73-13.28,4.81-4.33,9.65-8.68,14.86-12.5,2.82-2.07,6.42-3.05,8.88-4.17,3.63,22.9,7.17,45.27,10.71,67.64,8.1-.55,16.5-1.09,24.9-1.69,7.25-.52,11.96,3.23,15.31,9.12,3.33,5.87,3.03,7.19-3.16,10.03-20.41,9.35-33.76,25.29-42.84,45.3-1.63,3.6-3.12,7.27-4.67,10.9,13.59-10.02,25.84-21.07,38.85-31.15,11.98-9.28,19.63-20.79,23.03-35.47,.81-3.49,.99-5.67-2.48-7.71-4-2.34-7.65-5.3-11.35-8.13-10.73-8.2-20.06-17.54-23.96-31.01-.43-1.48-.3-3.12-.55-6.21,16.84,11,27.46,26.47,42.16,37.45,2.21-5.48,4.05-10.78,6.44-15.81,2.41-5.06,5.37-9.85,7.52-13.73-7.25-8.48-14.84-16.21-21.04-24.92-6.11-8.58-11.77-17.72-13.04-28.96,18.44,11.67,31.23,28.97,45.99,44.36,1.9-.77,3.69-1.58,5.53-2.24,6.92-2.48,10.93-.62,12.97,6.34,1.02,3.48,1.22,7.19,2.17,10.69,.62,2.28,1.34,5.09,3,6.44,9.99,8.13,20.28,15.9,31.32,24.46,6.33-9.3,12.34-18.12,18.24-26.79-16.23-15.82-31.38-31.06-47.06-45.73-19.4-18.15-30.81-41.35-42.08-64.7-.92-1.92-1.1-4.19-1.63-6.3l1.2-.8c1.81,1.29,3.89,2.33,5.38,3.92,7.38,7.9,14.8,15.78,21.83,23.99,19.15,22.38,38.08,44.95,57.2,67.36,2.38,2.79,5.36,5.05,8.61,8.06,4.23-13.58,4.71-26.46,5.02-39.41,.09-3.84-1-6.39-4.11-8.75-27.65-20.99-45.39-49.44-60-80.21-.77-1.61-.95-3.5-1.41-5.26,.62-.38,1.25-.75,1.87-1.13,23.19,21.68,41.57,47.69,62.75,72.63-.52-5.06-.81-9-1.33-12.9-3.51-26.14-7.11-52.27-10.54-78.43-.33-2.54,.33-5.21,.53-7.82,.78-.05,1.55-.1,2.33-.15,19.53,48.07,28.36,98.19,26.83,150.76,14.17-13.47,31.36-19.75,48.78-25.76-.27-5.54-.28-11.02-.85-16.44-2.87-27.59-7.99-54.8-16.66-81.13-9.24-28.1-19.71-55.79-29.6-83.67-.83-2.35-1.41-4.79-2.11-7.18,.45-.22,.9-.44,1.35-.66,2.72,3.67,5.59,7.24,8.14,11.02,14.61,21.68,23.97,45.81,30.7,70.76,12.05,44.68,22.83,89.7,34.23,134.55,3.53,13.86,7.36,27.65,11.06,41.47l1.62,.48c1.77-2.59,4.33-4.94,5.17-7.8,2.13-7.28,4.53-14.72,4.96-22.2,1.27-21.75,2.05-43.55,2.18-65.33,.07-11.91-.69-23.98-2.61-35.72-4.38-26.78-14.88-51.4-28.76-74.62-19.34-32.33-38.7-64.64-58.02-96.97-1.55-2.6-2.89-5.33-4.46-8.24,6.24-1.95,9.55,1.6,12.16,5.02,6.44,8.45,12.53,17.17,18.44,26,6.83,10.2,13.57,20.48,19.89,31.01,12.71,21.18,32.19,33.5,54.43,42.25,7.31,2.88,14.82,5.24,22.24,7.83,.38-.51,.76-1.02,1.14-1.53-6.24-9.7-12.14-19.65-18.78-29.07-20.03-28.4-44.29-53.15-68.3-78.1-7.96-8.27-15.6-16.85-23.11-25.52-1.79-2.06-2.49-5.06-3.7-7.62,.49-.24,.98-.48,1.47-.72,.77,.58,1.58,1.11,2.31,1.75,11.37,9.99,22.25,20.63,34.24,29.83,12.2,9.36,25.38,17.45,38.36,25.74,2.71,1.73,6.42,1.91,10.64,3.08-31.32-31.94-61.56-62.78-92.63-94.46,4.03,.28,6.48,.45,8.94,.62,.21-.46,.42-.92,.63-1.38-1.62-1.72-3.03-3.75-4.9-5.13-14.7-10.8-30.79-18.77-48.49-23.35-3.36-.87-6.83-1.39-10.14-2.42-.97-.3-2.2-1.86-2.14-2.76,.06-.94,1.41-2.3,2.43-2.56,2.56-.65,5.25-.81,7.89-1.13,6.28-.78,9.85-4,10.76-10.16-11.81,2.63-22.52-.97-33.37-4.9-13.81-5-27.75-9.81-41.93-13.55-12.52-3.31-25.35-3.11-37.41,2.76-5.18,2.52-10.15,5.49-15.55,8.44-8.77-4.92-17.92-3.9-25.24,3.15-7.35,7.08-13.88,15.19-19.73,23.58-2.11,3.03-3.1,9.39-1.33,12.11,5.79,8.91,4.19,15.28-4.5,21.07-7.49,4.98-15.99,8.49-24.22,12.28-6.03,2.78-8.22,6.03-7,12.53,8.26-4.97,16.64-5.83,25.58-1.76,13.54,6.17,20.87,4.32,30.85-6.79,3.89-4.33,8.03-8.44,13.03-13.68-.88,4.74-1.53,7.81-2,10.92-.59,3.97-.01,6.8,4.91,8.03,7.44,1.86,10.89,6.52,9.78,12.79-.51,2.87-2.2,6.01-4.31,8.02-9.07,8.62-15.53,18.27-16.94,31.22-.48,4.45-3.27,9.08-6.1,12.78-9.66,12.62-23.57,14.48-38.12,13.54-5.41-.35-6.75-3.05-4.78-8.36,2.07-5.58,4.87-10.9,6.78-16.52,3.62-10.63,.66-18.45-9.03-24.01-3.7-2.12-7.86-3.44-12.27-5.43m-334.85,297.59c-1.21,2.22-3.96,4.98-3.4,6.58,4.18,11.92,9.02,23.61,13.65,35.38-2.78-28.99,6.82-52.33,30.16-70.51,.56,3.07,.96,5.36,1.39,7.63,2.21,11.62,6.98,21.58,17.04,28.72,3.83,2.72,6.61,6.92,9.9,10.42,1.61,1.7,3.29,3.33,5.82,5.87,.68-3.01,1.3-4.55,1.33-6.09,.12-6.64,.25-13.29,.02-19.93-.3-8.89-3.35-16.79-9.13-23.64-3.43-4.06-7.19-8.02-9.7-12.62-1.95-3.58-2.46-8.05-3.01-12.2-.12-.93,2.25-3.08,3.54-3.13,3.78-.14,7.61,.36,11.4,.85,25.82,3.3,46.11,15.63,59.18,38.25,6.09,10.54,10.34,22.13,15.56,33.17,1.32,2.8,3.17,5.35,4.78,8.01-.86-9.65-3.21-18.73-3.39-27.85-.18-9.09,1.8-18.23,2.95-28.39-8.83-6.45-14.35-16.65-14.48-29.12-.07-7.2,1.63-14.42,2.43-21.63,.17-1.49,.46-3.53-.32-4.48-8.3-10.07-11.71-21.89-12.16-34.56-.69-19.55,2.35-38.34,13.03-55.28,.64-1.02,1.04-2.96,.51-3.84-6.92-11.43-5.98-23.11-1.27-34.87,3.5-8.73,2.79-17.3,.53-26.21-4.01-15.84-14.55-26.08-27.93-34.04-15.95-9.48-29.23-21.08-32.81-40.96-6.78,8.57-13.33,25.22-15.02,35.07-1.43,8.32,1.28,14.3,8.04,18.78,2.49,1.65,5.07,3.17,7.66,4.66,7.98,4.62,11.32,12.49,9.13,21.34-.74,2.97-2.49,4.58-5.36,3.44-4.27-1.7-8.69-3.42-12.38-6.05-7.08-5.04-14.68-5.85-22.79-4.21-4.37,.88-8.61,2.42-12.98,3.31-7.77,1.59-15.55,3.32-23.42,4.21-4.45,.5-9.2-1.52-10.32-6.15-1.11-4.6-2.08-10.62-.04-14.32,4.64-8.41,5-14.28-1.44-21.14-1.3-1.38-2.31-3.27-2.83-5.1-2.78-9.92-.6-18.33,7.79-24.85,3.4-2.64,7.9-5,9.5-8.56,2.48-5.54,5.61-5.12,9.89-3.64,2.19,.75,4.44,1.34,6.57,2.21,13.51,5.5,23.9-1.26,28.35-14.54-5.5-1.62-11.24-2.74-16.49-4.99-7.29-3.13-8.78-6.37-7.53-14.21,1.82-11.43,1.98-22.85-.18-34.21-2.12-11.2-6.15-21.55-16.35-27.96-11.12-6.98-23.11-6.14-35.07-2.64-16.47,4.82-32.74,10.34-49.35,14.61-5.52,1.42-11.88,.47-17.71-.41-6.25-.94-9.87-5.72-12.53-12.95-1.7,5.14-3.31,8.77-4.08,12.58-1.53,7.6,1.83,12.64,9.39,14.36,3.21,.73,6.56,1.01,9.87,1.12,5.12,.18,10.25,.05,15.47,.05-5.97,5.8-13.35,6.38-21.16,5.84-1.93-.13-4.24,.26-5.84,1.26-11.25,7.07-22.27,14.49-33.52,21.56-45.39,28.51-90.84,56.93-136.13,85.29,.42,.19,1.39,.7,2.41,1.08,14.55,5.44,29.35,4.53,44.16,1.46,20.63-4.28,39.65-12.75,58.09-22.68,1.49-.8,3.05-1.47,5.61-2.68-.45,2.81-.27,4.63-1.02,5.92-3.62,6.25-6.6,13.17-11.41,18.38-18.04,19.54-40.8,32.91-63.49,46.17-15.98,9.34-32.35,18-48.77,27.1,1.31,.49,2.36,.98,3.47,1.29,16.11,4.53,32.21,3.77,48.23-.42,16.32-4.27,31.24-11.73,45.69-20.26,2.46-1.45,5.11-2.59,7.67-3.87l1.4,1.54c-3.07,3.91-5.77,8.21-9.28,11.68-18.48,18.23-37.12,36.3-55.8,54.34-14.95,14.43-30.02,28.74-45.85,43.88,2.55,.56,3.89,1,5.25,1.12,8.64,.81,16.77-.89,24.58-4.68,14.42-7,26.38-17.36,37.9-28.15,11.3-10.57,21.81-21.97,32.83-32.85,2.37-2.34,5.42-3.98,8.15-5.94,.62,.39,1.24,.77,1.87,1.16-.72,2.44-1.11,5.06-2.26,7.28-1.2,2.32-3.21,4.22-4.74,6.39-32.1,45.74-53.33,96.25-65.48,150.62-2.52,11.27-4.58,22.87-2.21,34.57,.81,3.99,1.57,8.18,6.38,10.08,.71-1.52,1.38-2.81,1.94-4.15,12.89-31.02,25.7-62.06,38.66-93.05,10.91-26.1,21.96-52.14,33.01-78.18,.94-2.22,2.38-4.23,3.59-6.34,.58,.21,1.16,.42,1.73,.63-.49,6.54-.44,13.18-1.56,19.61-5.4,31.07-7.03,62.43-7.16,93.85-.07,16.1,.89,32.28,2.63,48.29,1.62,14.92,4.89,29.66,7.69,45.98,6.14-9.41,14.7-8.18,24.27-8.26-1.59-3.15-2.29-5.68-3.85-7.43-9.96-11.1-11.68-24.12-9.6-38.23,1.14-7.71,2.48-15.46,2.69-23.22,.26-9.16-1.26-17.76-10.96-22.73-2.28-1.17-3.38-5.48-3.96-8.54-.17-.88,3.25-3.01,5.3-3.61,5.21-1.52,10.58-2.5,16.2-3.77,.66-5.13,.92-10.63,2.14-15.91,3.39-14.63,7.04-29.2,10.94-43.7,.84-3.13,3.16-5.86,4.8-8.78,.61,.16,1.23,.33,1.84,.49,0,3.51,.48,7.1-.08,10.52-2.66,16.35-5.66,32.64-8.43,48.97-1.2,7.07-.78,7.63,5.73,9.75,2.3-3.52,4.64-7.12,7.02-10.71,15.69-23.67,31.36-47.36,47.14-70.97,1.64-2.46,3.99-4.45,6.01-6.66,.48,.37,.96,.74,1.45,1.12-10.77,34.74-31.27,64.12-52.22,92.37,5.51,7.48,10.68,14.49,15.99,21.69,9.14-11.61,18.51-23.9,28.29-35.86,12.85-15.71,25.99-31.18,39.1-46.67,1.2-1.41,3.03-2.29,4.57-3.41,.3,.35,.61,.69,.91,1.04-.73,1.8-1.24,3.74-2.23,5.38-10.53,17.46-20.26,35.51-32.01,52.11-9.66,13.65-21.82,25.51-32.71,38.31-1.72,2.02-3.68,4.82-3.61,7.2,.29,9.41,1.34,18.81,2.16,28.82,1.5-.91,2.44-1.27,3.12-1.92,11.7-11.11,23.36-22.24,35.03-33.38,2.95-2.82,3.48-6.27,3.85-10.29,.86-9.31,2.65-18.54,4.07-27.89,8.52-.21,10.98,7.68,17.03,10.81,3.3-4.78,6.78-9.63,10.04-14.61,12.44-19.04,24.78-38.14,37.24-57.17,1.32-2.01,3.19-3.66,4.8-5.48,.46,.36,.92,.72,1.38,1.07-11.37,30.1-25,58.94-46.83,82.2,5.17,10.75,9.96,20.72,14.86,30.9,1.18-1.58,2.24-3.01,3.3-4.44,18.22-24.58,36.38-49.2,54.73-73.69,2.68-3.58,6.24-6.51,9.4-9.74,.42,.29,.85,.59,1.27,.88-.34,1.54-.36,3.26-1.07,4.61-9.04,17.12-17.27,34.75-27.57,51.08-8.66,13.72-19.77,25.89-30.24,39.31m213.81-525.2v46.36c.86-.25,1.19-.27,1.43-.43,34.49-21.02,72.35-27.92,111.84-23.91,24.47,2.48,48.61,8.31,72.84,12.97,39.27,7.54,78.55,14.92,118.54,17.43,6.59,.41,13.23,.06,20.03,.06V253.74c-9.3,.72-18.26,2.07-27.2,1.98-21.78-.21-43.59-.56-65.33-1.85-25.24-1.5-50.02-6.49-73.68-15.35-24.54-9.18-49.63-10.44-75.07-7.31-27.23,3.35-53.41,11.04-78.78,21.55-3.73,1.55-4.74,3.38-4.74,7.27,.12,88.49,.09,176.98,.09,266.47m-15.39-5c0-87.48-.03-174.96,.1-262.44,0-4.28-1.45-6.41-5.12-8.39-27.02-14.57-56.12-20.61-86.48-21.22-27.41-.55-54.16,3.86-80.27,12.2-10.71,3.42-21.2,7.92-32.15,10.07-26.66,5.23-53.63,3.65-80.53,1.51-8.75-.7-17.49-1.53-26.34-2.32v326.57c19.07,1.59,37.71,.24,56.01-2.86,29.68-5.02,59.09-11.66,88.7-17.15,20.68-3.84,41.39-8.41,62.28-9.94,28.2-2.06,55.11,6.01,81.31,15.9,7.49,2.82,14.75,6.23,22.48,9.52,0-17.17,0-33.82,0-51.46m408.85-66.52c-18.78,1.4-37.64,3.97-55.68-3.85v59.82c25.97-2.25,49.33-10.83,71.05-24.26,2.37-1.47,4.91-2.85,7.56-3.63,10.48-3.07,20.47-1.39,30.37,3.76-1.64-5.67-3.25-11.24-5.89-16.27-6.32-12.05-16.11-18.76-30.22-17.57-5.45,.46-10.86,1.31-17.2,2m3.95-130.1c-19.86,7.21-39.32,5.51-58.66-3.19v62.43c6.83-1.27,13.52-1.43,19.3-3.8,17.59-7.21,34.95-15.01,52.16-23.09,11.85-5.56,23.49-7.59,35.67-1.33-2.07-24.79-28.16-37.53-48.46-31.02M145.35,455.8c-9.83,8.94-13.29,20.27-10.9,32.96,4.25,22.58,24.29,31.14,43.66,26.64,19.08-4.43,29.18-24.35,23.38-44.15-7.91-27.03-40.2-28.78-56.14-15.45m57.46-107.84c2.23-23.65-13.82-43.38-40.84-38.58-24.1,4.28-35.02,33.24-21.16,54.06,7.56,11.35,21.8,16.58,36.51,13.41,13.53-2.92,22.4-12.78,25.48-28.89m372.12,364.92c-.17-.78-.13-1.69-.53-2.32-5.82-9.32-14.84-13.29-25.24-13.46-13.8-.22-27.62,.92-41.42,.75-13.18-.17-22.22-5.38-23.06-19.88-.03-.6-.2-1.19-.49-2.85-2.58,2.84-4.73,4.85-6.46,7.18-8.14,10.99-5.67,22.74,6.29,29.48,6.56,3.7,13.78,5,21.19,3.92,12.96-1.89,25.81-4.5,38.8-6.11,10.2-1.26,20.58-1.87,30.92,3.29M257.01,362.27v-34.63h-39.85v38.96c12.66,0,25.12,.06,37.57-.15,.77-.01,1.52-2.11,2.27-4.18m-40.05,131.22v11.32h39.68v-38.51h-39.68v27.2m755.6,639.53c-8.11,9.16-17.12,17.47-28.37,22.29-6.5,2.79-8.8,7.16-9.94,13.26-2.34,12.42-4.49,24.87-1.3,37.43,.55,2.18,2.51,4,3.82,5.99,1.95-1.38,4.46-2.37,5.77-4.21,16.38-23.09,26.56-48.82,31.42-77.1-.31,.6-.61,1.2-1.4,2.34m-715.81,68.92c5.37-.67,6.02-5.41,7.02-9.11,4.09-15.06,2.56-29.95-2.66-44.5-.51-1.43-2.15-2.87-3.61-3.49-9.06-3.85-18.22-7.47-28.11-11.48,4.81,14.51,9.11,28.9,14.41,42.91,3.31,8.74,8.14,16.91,12.95,25.68m624.75-91.93c1.25,.73,2.51,1.46,4,2.33,6.26-5.54,12.41-10.98,18.94-16.76-9.76-8.2-18.77-15.77-28.62-24.04-1.04,8.16-1.94,15.34-2.88,22.51-.44,3.37-2.43,7.54-1.11,9.88,1.53,2.72,5.92,3.83,9.67,6.07m-550.48-18.52l8.9,7.97c.43-.28,.86-.56,1.29-.83-5.94-16.12-8.26-32.78-6.98-50.76-5.99,5.29-10.9,9.75-15.94,14.05-3.59,3.06-4.58,6.63-1.85,10.47,4.5,6.34,9.37,12.41,14.58,19.1m540.97,22.81c-1.25-.56-2.5-1.12-3.89-1.74-2.67,6.05-5.12,11.59-7.58,17.14,.44,.41,.88,.82,1.32,1.23,5.48-3.93,10.96-7.86,16.83-12.08-2.56-1.69-4.34-2.87-6.69-4.54Z" style="fill: #6e0303;"/>
  <path d="M720.49,754.42c3.95,1.69,8.11,3.01,11.81,5.13,9.69,5.56,12.65,13.38,9.03,24.01-1.91,5.63-4.72,10.94-6.78,16.52-1.97,5.31-.64,8.02,4.78,8.36,14.55,.94,28.47-.92,38.12-13.54,2.83-3.7,5.62-8.33,6.1-12.78,1.41-12.95,7.86-22.59,16.94-31.22,2.11-2.01,3.8-5.15,4.31-8.02,1.11-6.26-2.33-10.93-9.78-12.79-4.92-1.23-5.5-4.06-4.91-8.03,.46-3.1,1.12-6.18,2-10.92-5.01,5.24-9.14,9.35-13.03,13.68-9.98,11.11-17.31,12.96-30.85,6.79-8.95-4.08-17.32-3.21-25.58,1.76-1.22-6.5,.98-9.75,7-12.53,8.22-3.79,16.73-7.3,24.22-12.28,8.69-5.79,10.29-12.16,4.5-21.07-1.77-2.72-.78-9.08,1.33-12.11,5.85-8.39,12.38-16.5,19.73-23.58,7.32-7.05,16.47-8.07,25.24-3.15,5.4-2.95,10.37-5.92,15.55-8.44,12.06-5.87,24.88-6.07,37.41-2.76,14.18,3.74,28.12,8.55,41.93,13.55,10.85,3.93,21.55,7.52,33.37,4.9-.91,6.16-4.47,9.38-10.76,10.16-2.64,.33-5.33,.48-7.89,1.13-1.02,.26-2.37,1.62-2.43,2.56-.06,.9,1.17,2.46,2.14,2.76,3.31,1.03,6.77,1.55,10.14,2.42,17.7,4.58,33.79,12.55,48.49,23.35,1.88,1.38,3.28,3.4,4.9,5.13-.21,.46-.42,.92-.63,1.38-2.46-.17-4.91-.34-8.94-.62,31.07,31.68,61.31,62.52,92.63,94.46-4.23-1.17-7.93-1.35-10.64-3.08-12.98-8.29-26.17-16.38-38.36-25.74-11.98-9.2-22.86-19.83-34.24-29.83-.72-.63-1.54-1.17-2.31-1.75-.49,.24-.98,.48-1.47,.72,1.2,2.57,1.91,5.56,3.7,7.62,7.52,8.67,15.16,17.26,23.11,25.52,24.01,24.95,48.27,49.7,68.3,78.1,6.64,9.42,12.54,19.36,18.78,29.07-.38,.51-.76,1.02-1.14,1.53-7.42-2.6-14.93-4.96-22.24-7.83-22.24-8.76-41.72-21.07-54.43-42.25-6.32-10.53-13.06-20.8-19.89-31.01-5.91-8.83-12-17.56-18.44-26-2.61-3.43-5.92-6.97-12.16-5.02,1.57,2.91,2.91,5.64,4.46,8.24,19.32,32.33,38.68,64.64,58.02,96.97,13.89,23.22,24.38,47.84,28.76,74.62,1.92,11.74,2.68,23.81,2.61,35.72-.13,21.78-.91,43.58-2.18,65.33-.44,7.48-2.83,14.92-4.96,22.2-.84,2.86-3.39,5.22-5.17,7.8l-1.62-.48c-3.7-13.82-7.53-27.61-11.06-41.47-11.41-44.85-22.19-89.87-34.23-134.55-6.73-24.94-16.09-49.08-30.7-70.76-2.55-3.78-5.42-7.35-8.14-11.02-.45,.22-.9,.44-1.35,.66,.7,2.4,1.27,4.83,2.11,7.18,9.9,27.88,20.36,55.57,29.6,83.67,8.66,26.33,13.78,53.54,16.66,81.13,.56,5.42,.58,10.9,.85,16.44-17.42,6.01-34.61,12.29-48.78,25.76,1.53-52.58-7.3-102.69-26.83-150.76-.78,.05-1.55,.1-2.33,.15-.2,2.61-.87,5.28-.53,7.82,3.42,26.15,7.03,52.29,10.54,78.43,.52,3.91,.82,7.84,1.33,12.9-21.18-24.94-39.56-50.95-62.75-72.63-.62,.38-1.25,.75-1.87,1.13,.46,1.76,.64,3.65,1.41,5.26,14.61,30.77,32.35,59.22,60,80.21,3.11,2.36,4.2,4.91,4.11,8.75-.3,12.94-.79,25.82-5.02,39.41-3.25-3.01-6.24-5.28-8.61-8.06-19.12-22.41-38.05-44.98-57.2-67.36-7.03-8.21-14.45-16.08-21.83-23.99-1.49-1.59-3.57-2.63-5.38-3.92l-1.2,.8c.53,2.11,.7,4.38,1.63,6.3,11.26,23.35,22.67,46.55,42.08,64.7,15.68,14.67,30.82,29.91,47.06,45.73-5.9,8.67-11.91,17.49-18.24,26.79-11.05-8.56-21.33-16.33-31.32-24.46-1.66-1.35-2.38-4.16-3-6.44-.95-3.5-1.15-7.21-2.17-10.69-2.04-6.96-6.05-8.82-12.97-6.34-1.84,.66-3.63,1.46-5.53,2.24-14.76-15.39-27.55-32.69-45.99-44.36,1.27,11.23,6.94,20.38,13.04,28.96,6.2,8.71,13.78,16.44,21.04,24.92-2.15,3.89-5.11,8.68-7.52,13.73-2.4,5.03-4.24,10.33-6.44,15.81-14.7-10.98-25.33-26.45-42.16-37.45,.25,3.09,.12,4.73,.55,6.21,3.9,13.47,13.23,22.81,23.96,31.01,3.7,2.83,7.35,5.79,11.35,8.13,3.48,2.04,3.29,4.22,2.48,7.71-3.4,14.69-11.05,26.19-23.03,35.47-13.01,10.08-25.26,21.14-38.85,31.15,1.55-3.64,3.04-7.3,4.67-10.9,9.08-20.01,22.44-35.95,42.84-45.3,6.2-2.84,6.5-4.15,3.16-10.03-3.35-5.89-8.06-9.64-15.31-9.12-8.4,.6-16.8,1.14-24.9,1.69-3.54-22.38-7.09-44.74-10.71-67.64-2.46,1.12-6.07,2.1-8.88,4.17-5.21,3.82-10.05,8.17-14.86,12.5-3.87,3.49-5.57,7.95-5.73,13.28-.45,14.7-4.06,28.3-12.86,40.6-4.41,6.17-6.88,13.72-10.88,21.99-1.24-6.07-2.8-11.26-3.28-16.55-.68-7.6,.03-15.34-1.02-22.86-.59-4.18-2.93-8.49-5.55-11.93-11.32-14.86-15.81-31.86-16.65-50.12-.05-1.04,.16-2.4,.81-3.12,10.75-12.19,11.43-26.7,6.78-40.76-5.62-16.98-2.67-33.46-.88-50.2,1.46-13.68,4.45-27.34,.04-40.99-3.74-11.57-11.14-20.7-19.94-28.76-2.21-2.02-2.68-3.57-1.84-6.7,2.04-7.65,3.18-15.55,4.71-23.52,3.04,.94,6.23,2.26,9.54,2.9,7.86,1.51,12.41-.67,15.85-7.8,2.3-4.75,3.73-9.92,6.08-14.64,1.5-3.01,3.39-6.53,6.1-8.12,15.49-9.07,17.73-19.61,8.95-36.05,.13-.54,.43-.91,.43-.91Z" style="fill: #fefefe;"/>
  <path d="M478.02,1307.02c12.41-17.56,27.2-31.96,49.74-34.73,11.17-1.37,21.56,2.46,30.21,9.28,6.97,5.49,12.82,12.42,19.1,18.77,1.33,1.35,2.38,2.97,3.56,4.46,.55-.15,1.1-.29,1.64-.44-.32-3.11-.12-6.38-1.06-9.29-7.16-22.11-23.16-34.47-45.06-40.01-19.96-5.05-38.8-1.18-56.92,7.67-9.98,4.88-20.03,9.62-29.85,14.8-14.82,7.81-29.15,7.78-43.94-.49-28.25-15.79-53.34-34.98-70.9-62.75-1.06-1.67-1.84-3.52-2.7-5.75,.06-.46,.26-.67,.26-.67,10.79,6.11,21.33,12.73,32.43,18.22,15.46,7.64,31.89,12.14,49.33,11.82,8.72-.16,17.29-1.72,24.81-6.26,23.18-13.98,47.93-14.83,73.06-8,15.26,4.15,29.9,10.53,44.84,15.87,2.65,.95,5.38,1.7,8.35,1.92-10.41-10.74-21.29-20.59-34.53-27.44-21.28-11-43.92-14.85-67.57-12.03-11.97,1.43-23.81,3.96-35.68,6.11-1.92,.35-3.85,1.07-5.57,2.01-14.17,7.7-27.78,6.9-41.29-1.9-8.94-5.82-18.28-11.01-27.32-16.41,9.45-8.26,20.86-15.11,34.42-17.69,13.49-2.57,26.43,1.65,39.46,4.55,.2-.47,.39-.95,.59-1.42-1.36-1.29-2.65-2.66-4.09-3.85-10.63-8.73-22.98-11.8-36.54-13.74-28.49-4.07-56.94-9.04-84.96-15.56-22.47-5.22-44.29-13.26-66.39-20.07-1.21-.37-2.36-.96-3.99-1.63,5.18-7.58,12.62-10.52,20.7-10.22,10.32,.38,20.59,2.26,28.86,3.25-5.28-4.72-12.59-10.63-19.16-17.26-8.17-8.25-15.09-17.83-16.18-29.62-.76-8.25,.73-16.8,1.9-25.12,1.78-12.7,3.1-25.16-5.82-36.19,16.66-2.28,28.99,7.14,32.09,25.19,2.04,11.91,2.77,24.05,4.19,36.08,1.21,10.25,2.77,20.52,9.12,29.03,3.08,4.12,7.26,7.42,11.7,10.72-4.75-13.09-4.89-24.83,6.5-34.99,6.98,17.55,19.05,29.66,35.78,37.22,1.06,.48,2.11,.97,3.19,1.38,6.01,2.25,12.02-.79,13.45-7.01,.25-1.08-.41-2.55-1.01-3.63-12.72-23.13-15.3-48.07-13.22-73.84,.37-4.53,.84-9.04,1.26-13.56,.46-.14,.92-.28,1.38-.42,1.61,2.18,3.37,4.27,4.8,6.57,8.35,13.43,12.38,28.46,16.01,43.64,3.5,14.64,9.03,28.29,18.62,40.18,5.31,6.59,9.93,13.74,14.91,20.6,1.93,2.66,4.01,5.23,6.65,7.38,3.79-7.92,3.06-15.32,2.23-22.64-1.05-9.22-2.92-18.36-3.66-27.59-1.18-14.85,4.47-27.14,15.81-37.56,3.99,12.72,11.32,22.23,22.65,28.68,6.72,3.82,6.2,11.12,6.6,17.36,.47,7.37,.01,14.87-.8,22.23-1.37,12.46,3.31,22.18,12.79,29.64,17.54,13.77,36.71,24.94,56.45,35.29,16.49,8.65,32.6,18.1,45.66,31.73,4.8,5,8.99,10.58,13.77,16.27,1.6-7.4-.4-13.75-4.42-19.61-7.54-10.98-18.68-17.79-29.3-25.22-14.3-9.99-29-19.48-42.65-30.29-16.01-12.68-27.68-28.84-30.72-49.6-1.23-8.44-.17-17.2-.32-25.81-.23-13.43-.1-26.89-1.08-40.26-.64-8.72-6.91-14.85-12.88-20.73-1.99-1.96-4.08-3.83-6.8-6.37,18.02,1.49,31.2,10.26,42.1,22.43,21.61,24.12,34.64,52.8,42.12,84,2.65,11.05,7.86,20.2,15.11,28.67,10.59,12.36,20.85,25.01,31.26,37.52,.39,.47,.92,.83,2.47,2.19-15.71-48.78-22.19-96.88-8.54-146.01,4.57-16.45,13.84-36.35,20.88-44.61,3.18,12.08,6.53,23.23,8.99,34.57,3.2,14.77,3.22,29.55-.81,44.36-3.43,12.6-1.37,25.4,.35,38.08,.37,2.73,.78,5.46,1.58,8.27,3.94-27.56,13.73-51.8,37.69-69.46,3.6,15.47,7.37,30.13,10.35,44.95,2.93,14.61-.57,28.35-7.82,41.13-4.58,8.08-9.22,16.16-14.42,23.85-6.1,9.03-8.61,18.92-8.77,29.58-.11,7.14-.02,14.29,.61,21.72,.8-2.48,1.67-4.94,2.39-7.45,5.41-18.73,12.31-36.6,24.79-52.13,9.87-12.29,14.23-27.18,16.09-42.72,2.1-17.59,6.7-34.11,19.33-47.23,2.92,6.73,6.61,13.23,8.57,20.21,3.21,11.43,1.16,22.97-3.45,33.58-5.19,11.96-11.73,23.33-17.69,34.96-1.27,2.47-2.57,4.93-3.92,7.5,12.17,2.65,23.3-9.33,31.44-33.19,3.84,5.38,6.98,15.52,5.6,21.66-.69,3.08-2.97,6.12-5.27,8.45-5.35,5.42-11.83,9.82-16.59,15.67-7.64,9.37-9.27,20.56-6.37,33.31,5.09-5.92,9.88-11.32,14.49-16.88,10.11-12.18,19.76-24.73,23.12-40.66,1.15-5.44,.36-11.28,1.46-16.74,1.15-5.69,2.94-11.4,5.45-16.61,4.02-8.34,9.84-15.92,13.1-24.5,3.37-8.86,5.02-18.46,6.64-27.87,1.53-8.87,6.44-14.91,13.47-20.12,1.94,14.98,4.14,29.47,5.6,44.03,1.11,11.1-2.36,21.29-8.36,30.62-.44,.69-.83,1.42-1.21,2.14-.05,.1,.04,.27,.27,1.48,3.02-1.77,5.69-3.49,8.49-4.94,7.03-3.62,13.85-7.95,21.28-10.38,4.82-1.57,10.56-.3,15.96,.32-19.45,4.55-31.01,17.36-38.48,34.77-4.63,10.79-9.04,21.69-14.04,32.3-4.45,9.44-10.66,17.84-19.39,23.69-7.34,4.92-12.89,10.86-15.85,19.78,.11,.63,.49,.8,.86,.98,20.26-2.18,35.74-13.47,48.57-27.87,12.51-14.03,26.15-26.26,41.92-36.36,18.64-11.94,27.97-30.51,34.93-50.61,1.51-4.37,3.09-8.78,3.94-13.3,2.27-11.99,9.11-21.08,18.11-30.03,5.46,20,.34,38.47-3.52,57.23-4.05,19.72-16.21,34.03-30.26,48.6,1.98,0,2.74,.21,3.3-.03,22.66-9.95,44.61-21.17,64.73-35.77,17.86-12.96,31.86-29.28,41.97-48.7,12.89-24.77,34.16-39.09,58.91-49.47,1.64-.69,3.42-1.03,5.77-.8-2.89,3.64-5.79,7.27-8.67,10.91-4.18,5.3-7.46,10.97-7.77,17.97-.75,17.1-7.41,32.12-16.4,46.32-.85,1.35-1.55,2.78-2.33,4.18,.22,.54,.44,1.07,.67,1.61,2.64-.56,5.42-.76,7.87-1.77,3.04-1.26,5.71-3.39,8.7-4.8,4.32-2.03,7.06-1.6,11.25,1.45-10.62,4.4-17.02,13.18-23.61,21.67-16.19,20.86-37.83,32.42-63.37,37-19.57,3.51-39.36,5.79-58.87,9.53-24.77,4.75-46.81,15.94-67.57,30.1-16.15,11.02-32.58,21.69-49.41,31.62-6.99,4.12-15.39,5.8-23.06,8.83-3.8,1.5-7.47,3.41-11.02,5.46-.86,.49-1.58,2.41-1.3,3.36,.27,.9,1.86,1.54,2.98,2.04,2.37,1.06,5.04,1.6,7.2,2.97,23.49,14.84,47.06,14.24,71.13,1.24,18.06-9.76,36.47-18.88,55.31-28.12,.75,.32,.91,.46,1.07,.61-10.78,11.56-21.65,23.03-32.32,34.68-14.47,15.8-33.5,22.67-53.49,27.74-22.53,5.72-45.39,7.93-68.58,5.92-5.28-.46-10.5-1.55-15.75-2.33-13.21-1.98-24.12,2.6-33.27,11.9-1.14,1.15-1.67,2.9-2.46,4.35,6.83,0,13.03-.33,19.18,.09,6.21,.43,11.02,3.94,15.47,8.2,8.23,7.89,17.56,14.05,28.83,16.86,10.17,2.54,19.13-.09,25.79-7.71,15.5-17.73,46.06-18.68,65.51,2.04-14.58,1.17-21.03,12.41-28.21,22.27-14.13,19.39-32.7,27.78-56.28,23.28-6.46-1.23-12.74-4.55-18.54-7.9-11.78-6.8-23.09-14.41-34.78-21.37-3.94-2.34-8.29-4.29-12.71-5.46-10.62-2.83-20.06,6.6-16.22,17,2.68,7.26,7.79,13.7,12.28,20.18,3.96,5.73,8.92,10.77,12.8,16.55,7.8,11.63,7.13,21.46-1.51,31.33-9.26,10.58-20.28,13.12-32.61,7.22-12.68-6.06-21.54-16.32-30.12-27.9,5.95,1.42,11.2,3.22,16.58,3.81,5.02,.55,10.33,.51,15.25-.54,6.06-1.29,8.5-6.15,6.89-12.24-1.01-3.79-2.26-7.68-4.24-11.03-7.85-13.29-16.62-26.15-15.77-44.2-3.34,2.32-5.55,3.58-7.45,5.21-13.52,11.56-26.68,23.55-40.58,34.63-5.98,4.77-13.15,8.41-20.28,11.34-17.12,7.05-32.38,4.35-46-9.08-16.1-15.87-32.61-31.38-49.66-46.21-8.8-7.66-19.17-13.53-28.45-19.94,11.98,0,24.89-.99,37.57,.31,10.71,1.1,21.41,4.12,31.65,7.64,11.09,3.81,19.59,11.48,25.94,21.57,5.32,8.45,11.97,15.51,22.55,17.43,7.66,1.39,14.83-.81,19.78-5.88,11.32-11.63,21.76-24.14,32.31-36.5,2.35-2.75,2.05-5.35-2.19-7.22-19.11-8.4-38.98-13.52-59.84-12.24-10.44,.64-20.73,3.89-31.41,5.77-.33-.19-.27-.15-.27-.15Z" style="fill: #fdfdfd;"/>
  <path d="M385.4,1051.42c10.25-13.14,21.36-25.31,30.02-39.03,10.3-16.32,18.53-33.96,27.57-51.08,.71-1.35,.73-3.06,1.07-4.61-.42-.29-.85-.59-1.27-.88-3.15,3.23-6.71,6.16-9.4,9.74-18.35,24.49-36.51,49.11-54.73,73.69-1.06,1.43-2.13,2.86-3.3,4.44-4.9-10.18-9.69-20.15-14.86-30.9,21.83-23.27,35.47-52.11,46.83-82.2-.46-.36-.92-.72-1.38-1.07-1.61,1.82-3.48,3.47-4.8,5.48-12.46,19.02-24.8,38.13-37.24,57.17-3.26,4.99-6.74,9.83-10.04,14.61-6.05-3.13-8.51-11.03-17.03-10.81-1.42,9.35-3.21,18.58-4.07,27.89-.37,4.02-.9,7.48-3.85,10.29-11.67,11.13-23.33,22.27-35.03,33.38-.68,.64-1.62,1.01-3.12,1.92-.82-10.02-1.87-19.41-2.16-28.82-.07-2.38,1.89-5.18,3.61-7.2,10.89-12.79,23.05-24.66,32.71-38.31,11.75-16.6,21.48-34.65,32.01-52.11,.99-1.64,1.5-3.58,2.23-5.38-.3-.35-.61-.69-.91-1.04-1.54,1.12-3.38,1.99-4.57,3.41-13.11,15.5-26.25,30.97-39.1,46.67-9.78,11.96-19.15,24.25-28.29,35.86-5.31-7.21-10.47-14.21-15.99-21.69,20.95-28.26,41.44-57.63,52.22-92.37-.48-.37-.96-.74-1.45-1.12-2.02,2.21-4.36,4.2-6.01,6.66-15.78,23.61-31.45,47.3-47.14,70.97-2.38,3.58-4.71,7.19-7.02,10.71-6.51-2.12-6.93-2.68-5.73-9.75,2.77-16.33,5.77-32.62,8.43-48.97,.56-3.42,.08-7.01,.08-10.52-.61-.16-1.23-.33-1.84-.49-1.64,2.92-3.96,5.65-4.8,8.78-3.9,14.5-7.55,29.07-10.94,43.7-1.22,5.28-1.48,10.79-2.14,15.91-5.62,1.27-10.99,2.25-16.2,3.77-2.05,.6-5.46,2.74-5.3,3.61,.58,3.07,1.69,7.38,3.96,8.54,9.7,4.97,11.22,13.56,10.96,22.73-.22,7.76-1.55,15.51-2.69,23.22-2.09,14.11-.37,27.13,9.6,38.23,1.57,1.75,2.26,4.28,3.85,7.43-9.57,.08-18.13-1.15-24.27,8.26-2.8-16.32-6.07-31.06-7.69-45.98-1.74-16.01-2.7-32.19-2.63-48.29,.13-31.42,1.76-62.78,7.16-93.85,1.12-6.43,1.07-13.07,1.56-19.61-.58-.21-1.16-.42-1.73-.63-1.21,2.11-2.65,4.12-3.59,6.34-11.05,26.04-22.1,52.08-33.01,78.18-12.95,30.99-25.77,62.03-38.66,93.05-.56,1.34-1.23,2.63-1.94,4.15-4.81-1.9-5.57-6.09-6.38-10.08-2.37-11.7-.31-23.3,2.21-34.57,12.15-54.37,33.38-104.88,65.48-150.62,1.53-2.17,3.54-4.07,4.74-6.39,1.15-2.22,1.54-4.84,2.26-7.28-.62-.39-1.24-.77-1.87-1.16-2.74,1.96-5.79,3.6-8.15,5.94-11.02,10.88-21.53,22.28-32.83,32.85-11.52,10.78-23.49,21.15-37.9,28.15-7.81,3.79-15.94,5.49-24.58,4.68-1.37-.13-2.71-.57-5.25-1.12,15.83-15.14,30.9-29.45,45.85-43.88,18.67-18.04,37.32-36.1,55.8-54.34,3.51-3.47,6.21-7.77,9.28-11.68l-1.4-1.54c-2.56,1.28-5.21,2.42-7.67,3.87-14.45,8.53-29.37,16-45.69,20.26-16.02,4.19-32.12,4.95-48.23,.42-1.11-.31-2.16-.8-3.47-1.29,16.43-9.09,32.8-17.76,48.77-27.1,22.69-13.26,45.44-26.63,63.49-46.17,4.81-5.21,7.79-12.12,11.41-18.38,.74-1.29,.57-3.11,1.02-5.92-2.55,1.22-4.12,1.88-5.61,2.68-18.44,9.93-37.46,18.4-58.09,22.68-14.81,3.08-29.61,3.98-44.16-1.46-1.02-.38-1.99-.89-2.41-1.08,45.29-28.37,90.74-56.78,136.13-85.29,11.25-7.06,22.27-14.49,33.52-21.56,1.6-1,3.91-1.4,5.84-1.26,7.81,.54,15.19-.04,21.16-5.84-5.22,0-10.35,.13-15.47-.05-3.3-.12-6.66-.39-9.87-1.12-7.56-1.72-10.91-6.76-9.39-14.36,.77-3.81,2.38-7.45,4.08-12.58,2.66,7.23,6.28,12.01,12.53,12.95,5.83,.88,12.19,1.83,17.71,.41,16.6-4.27,32.88-9.79,49.35-14.61,11.96-3.5,23.95-4.34,35.07,2.64,10.2,6.4,14.23,16.76,16.35,27.96,2.16,11.36,2,22.78,.18,34.21-1.25,7.84,.25,11.08,7.53,14.21,5.25,2.25,10.99,3.37,16.49,4.99-4.45,13.28-14.85,20.04-28.35,14.54-2.14-.87-4.39-1.46-6.57-2.21-4.29-1.48-7.41-1.89-9.89,3.64-1.6,3.56-6.1,5.92-9.5,8.56-8.39,6.52-10.57,14.94-7.79,24.85,.51,1.83,1.53,3.72,2.83,5.1,6.44,6.86,6.08,12.73,1.44,21.14-2.04,3.7-1.07,9.72,.04,14.32,1.11,4.63,5.87,6.66,10.32,6.15,7.86-.89,15.64-2.62,23.42-4.21,4.37-.9,8.61-2.43,12.98-3.31,8.11-1.64,15.71-.83,22.79,4.21,3.7,2.63,8.12,4.35,12.38,6.05,2.87,1.15,4.63-.47,5.36-3.44,2.2-8.85-1.15-16.72-9.13-21.34-2.59-1.5-5.17-3.01-7.66-4.66-6.76-4.49-9.47-10.47-8.04-18.78,1.69-9.85,8.23-26.5,15.02-35.07,3.58,19.87,16.86,31.48,32.81,40.96,13.38,7.95,23.92,18.19,27.93,34.04,2.25,8.9,2.96,17.48-.53,26.21-4.71,11.76-5.65,23.44,1.27,34.87,.53,.88,.14,2.82-.51,3.84-10.69,16.95-13.72,35.73-13.03,55.28,.45,12.68,3.86,24.5,12.16,34.56,.78,.95,.48,2.99,.32,4.48-.8,7.22-2.51,14.43-2.43,21.63,.13,12.47,5.65,22.67,14.48,29.12-1.15,10.16-3.14,19.3-2.95,28.39,.19,9.12,2.53,18.2,3.39,27.85-1.61-2.66-3.46-5.21-4.78-8.01-5.22-11.05-9.47-22.64-15.56-33.17-13.07-22.63-33.36-34.95-59.18-38.25-3.78-.48-7.61-.99-11.4-.85-1.28,.05-3.66,2.2-3.54,3.13,.55,4.15,1.06,8.62,3.01,12.2,2.51,4.6,6.28,8.56,9.7,12.62,5.78,6.86,8.84,14.75,9.13,23.64,.22,6.64,.09,13.29-.02,19.93-.03,1.54-.65,3.08-1.33,6.09-2.53-2.54-4.21-4.17-5.82-5.87-3.29-3.49-6.07-7.7-9.9-10.42-10.06-7.14-14.82-17.1-17.04-28.72-.43-2.28-.83-4.56-1.39-7.63-23.34,18.19-32.94,41.52-30.16,70.51-4.63-11.76-9.47-23.45-13.65-35.38-.56-1.6,2.18-4.36,3.62-6.86Z" style="fill: #fefefe;"/>
  <path d="M599,526c0-88.99,.03-177.48-.09-265.97,0-3.89,1-5.72,4.74-7.27,25.37-10.51,51.55-18.2,78.78-21.55,25.44-3.13,50.52-1.88,75.07,7.31,23.67,8.86,48.44,13.85,73.68,15.35,21.74,1.29,43.55,1.63,65.33,1.85,8.94,.09,17.89-1.26,27.2-1.98v325.24c-6.81,0-13.45,.36-20.03-.06-39.99-2.52-79.28-9.89-118.54-17.43-24.23-4.65-48.37-10.49-72.84-12.97-39.49-4.01-77.35,2.89-111.84,23.91-.25,.15-.57,.18-1.43,.43v-46.86m95.98-129.41c.11-2.48,.25-4.96,.31-7.44,.21-8.49,.44-16.97,.51-25.46,0-1.15-.77-2.41-1.48-3.4-.16-.22-2.04,.24-2.38,.82-1.81,3.13-4.28,2.54-7.3,2.23-15.76-1.6-30.89,.47-44.05,10.05-13.87,10.1-18.69,23.1-14.15,38.8,4.19,14.47,16.48,18.89,29.42,21.83,10.19,2.31,20.11-.24,30.05-2.27,1.51-.31,3.44,.5,4.93,1.26,1.14,.58,1.91,1.91,2.84,2.91,.45-1.3,1.28-2.59,1.29-3.89,.09-11.48,.03-22.97,.02-35.44m71.05,76.81c-.5,.62-.99,1.24-1.57,1.96,8.84,2.04,10.6,4.3,10.59,13.37,0,7.13-.44,14.29,.06,21.38,.57,8.12,8.64,12.94,16.04,10,5.63-2.24,11.14-4.76,15.92-6.81,3.03,3.39,5.58,6.58,8.53,9.34,.92,.86,3.41,1.29,4.32,.66,3.07-2.12,5.75-4.79,7.45-6.27-1.39-4.38-3.21-7.67-3.35-11.02-.36-8.95,.02-17.93,.05-26.9,0-1.28,.17-2.94-.52-3.77-3.8-4.52-7.84-8.83-12.9-14.43-5.36,5.24-9.97,9.75-14.58,14.26,.45,.46,.89,.91,1.34,1.37,2.12,.19,4.47-.14,6.29,.69,2.19,1,5.41,2.84,5.59,4.58,.67,6.74,.56,13.59,.26,20.38-.22,4.95-4.36,5.52-8.07,5.28-4.94-.31-10.53,.36-13.45-5.22-.42-.8-.19-1.97-.14-2.96,.27-5.64,.39-11.3,.9-16.92,.84-9.34-2.08-14.92-10.89-19.74-3.74,3.39-7.55,6.84-11.86,10.78m-82.84-194.8c1.97-3.53-.83-3.53-2.91-3.76-14.18-1.58-28.36-3.17-42.57-4.49-1.35-.13-2.88,1.62-4.33,2.5,1.26,.72,2.6,2.17,3.77,2.04,8.26-.87,13.18,3.48,16.48,10.25,5.88,12.04,11.81,24.05,17.28,36.28,3.87,8.65,7.02,17.62,10.58,26.7,.53-.82,1.01-1.33,1.22-1.94,7.11-20.77,14.28-41.52,21.23-62.34,2.05-6.14,4.94-11.14,11.58-13.15,1.38-.42,2.54-1.59,4.04-2.58-5.27-3.67-27.51-2.17-31.95,1.86,.78,.61,1.43,1.44,2.27,1.72,7.28,2.48,9.87,6.26,7.84,13.63-2.81,10.21-6.31,20.23-9.51,30.33-4.64-7.39-8.1-14.69-11.26-22.12-4.22-9.92-4.12-9.96,6.23-14.93m44.53,130.17c-2.01,8.63-5.79,16.36-11.77,23.17,1.88-.3,3.92-.52,5.09-1.63,5.45-5.18,10.66-10.62,15.69-15.7,3.97,3.68,8.35,8,13.09,11.89,.98,.8,3.94,.67,4.88-.21,4.95-4.62,9.56-9.62,14.12-14.33-4.75-2.4-9.13-4.39-13.28-6.77-5.7-3.27-11.08-7.18-12.84-13.89-.78-2.96,.04-6.34,.15-10.18,14.49,7.64,23.42,6.59,28.56-1.95-6.49-4.45-12.95-8.88-19.52-13.39-3.78,3.49-8.14,7.52-11.7,10.81-4.68-3.16-8.64-5.98-12.77-8.51-.9-.55-2.75-.57-3.6,0-6.87,4.63-13.66,9.38-20.31,14.31-.86,.64-.79,2.52-1.15,3.83,1.22,.11,2.62,.66,3.62,.25,1.97-.8,3.91-1.92,5.54-3.29,4.2-3.53,7.71-2.09,10.64,1.48,1.96,2.38,4.16,5.09,4.72,7.96,.97,4.97,.76,10.18,.84,16.15m136.97-102.63c-5.03-2.37-9.84-5.78-15.13-6.85-7.26-1.48-21.51,9.36-23.35,16.7-.38,1.51-.36,3.57,.4,4.8,1.05,1.69,2.99,2.83,4.5,4.17-11.54,16.67-10.64,29.79,2.03,40.34,7.05-3.89,13.88-7.65,20.04-11.05,3.33,4.49,5.72,7.72,8.45,11.4,5.04-5.5,9.43-10.3,13.92-15.2-1.76-1.55-2.95-2.7-4.26-3.71-4.08-3.16-5.91-7.01-5.38-12.4,.74-7.6,.86-15.27,.99-22.92,.03-1.56-1.07-3.15-2.21-5.28m-199.58,201.13c1.07,6.05,2.77,11.78,7.65,15.64,7.29-5.41,14.24-10.58,20.49-15.22,4.4,3.76,7.73,6.6,11.38,9.73,5.73-6.82,11.09-13.19,16.93-20.14-1.76-.24-2.44-.51-3.02-.38-7.63,1.81-11.56-1.17-11.5-8.92,.05-5.64-.29-11.37,.57-16.9,.81-5.23-1.12-8.72-4.41-12.27-6.75-7.28-11.02-7.71-18.63-1.13-2.62,2.27-4.81,5.03-7.29,7.46-6.63,6.48-6.96,13.72-2.61,21.35-4.75,6.07-9.52,11.87-9.56,20.76m168.95-74.01c3.02,4.12,5.55,8.75,9.18,12.24,6.78,6.52,12.55,5.95,19.59-.03,7.51-6.37,14.35-12.76,17.47-22.77,3.92-12.56,1.35-23.25-6.93-32.77-7.51-8.63-12.04-9.05-21.83-3.33-15.93,9.3-25.33,29.63-17.47,46.66m-63.06-132.5c3.42,1.07,3.99,3.48,4.13,6.86,.38,9.28,1.02,18.58,2.14,27.8,.82,6.75,2.61,13.38,7.78,18.42,3.39,3.3,5.85,3.11,8.57-.73,2.68-3.79,5.35-7.6,7.77-11.55,.57-.93,.43-2.55,.07-3.69-.15-.48-1.96-1.02-2.56-.7-4.31,2.39-5.68-.64-6.06-3.68-1.33-10.64-2.27-21.32-3.38-32.26,9.1-1.03,17.18-1.81,25.19-2.99,1.38-.2,2.51-2.11,3.76-3.23-1.37-.96-2.71-2.69-4.12-2.75-6.96-.29-13.94-.13-20.44-.13-4.97-7.58,1.34-14.28,.1-21.66-7.28,10.62-15.15,20.33-27.4,26.34,1.73,1.58,2.78,2.55,4.43,3.94m100.18,177.93c-2.2,1.38-4.39,2.76-7.58,4.75-3.71-4.62-7.34-9.13-11.03-13.72-6.9,5.63-12.62,10.29-18.93,15.44,2.47,.36,4.25,.57,6,.89,7.41,1.38,9.53,3.91,9.51,11.31-.02,6.83-.08,13.66-.1,20.49-.02,4.94,0,9.87,0,14.76h14.93c0-12.33,.15-24.31-.08-36.27-.08-4.08,.62-7.06,5.18-8.01,3.97,3.6,7.99,7.24,12.19,11.05,4.87-5.16,11.32-8.06,13.72-13.46-3.67-2.25-6.5-3.81-9.13-5.65-2.84-1.98-5.5-4.22-8.23-6.35-2.14,1.57-4.02,2.94-6.47,4.75m-73.17-97.2c-1.65,1.11-3.37,2.14-4.95,3.35-5.93,4.58-11.96,9.09-14.11,16.85-3.81,13.73,3.07,31.28,15.22,38.79,5.91,3.66,11.51,3.33,16.78-1.3,4.63-4.06,9.08-8.31,13.54-12.56,1.1-1.05,1.92-2.39,2.87-3.6-17.49,7.33-30.29,3.27-37.72-14.12-2.88-6.75,.96-14.08,8.9-19.68,9.12,9.38,17.29,10.43,23.72,3.99-5.18-5.51-10.36-11.02-15.7-16.7-2.53,1.44-5.25,2.99-8.56,4.97m-168.43,70.5c.49,18.1,1.61,36.21,1.21,54.29-.21,9.5,5.17,13.44,11.65,17.74,2.72-3.43,5.12-6.61,7.69-9.64,2.37-2.79,4.93-5.41,8.02-8.77-2.17-.39-2.67-.62-3.12-.53-8.12,1.58-9.39,1.07-9.56-6.97-.37-17.77-.15-35.56-.17-53.34,0-1.27,0-2.54,0-4.27h-16.39c.24,3.73,.46,7.2,.68,11.49m102.43,18.96c-.11,2.15-.33,4.31-.31,6.46,.08,9.93-.24,19.9,.52,29.79,.5,6.61,9,12.25,14.59,10.23,7.08-2.56,10.15-9.19,13.98-15.17-1.83-.13-3.32,.21-4.7,.81-5.07,2.21-9.38,.25-9.61-5.15-.4-9.57-.11-19.16-.11-29.08,2.6,0,5.07-.08,7.53,.02,2.44,.11,4.76-.36,4.31-3.24-.2-1.26-2.39-3.09-3.74-3.15-9.93-.45-7.85-2.53-7.4-9.96,.13-2.09,1.13-4.11,1.57-6.19,.3-1.45,.32-2.96,.6-5.7-2.06,1.37-3.3,1.74-3.74,2.55-4.18,7.76-10.78,12.95-18.17,17.25-3.63,2.11-2.96,3.72-.07,5.75,1.68,1.18,3.18,2.61,4.77,4.77m-11.83-177.3c-2.02,1.84-4.05,3.69-6.38,5.82,1.19,.65,1.99,1.35,2.24,1.19,5.57-3.59,9.12,1.17,13.2,3.3,.99,.52,1.78,2.31,1.84,3.55,.43,8.79,.86,17.59,.84,26.39-.02,6.53,3.95,10.83,8.54,13.7,2.53,1.59,8.06,1.16,10.57-.65,3.83-2.76,6.21-7.53,9.47-11.78-2.71-.83-5.03-1.21-7.04-2.21-6.66-3.33-9.1-5.44-8.54-12.24,.45-5.46-.49-11.06,.23-16.45,1.07-8-1.98-13.56-7.96-18.41-2.92-2.37-5.26-2.47-7.9-.27-2.94,2.45-5.73,5.06-9.11,8.08m24.88-20.18c4.6-5.11,3.63-11.83-6-17.54-1.8,1.54-3.72,3.09-5.55,4.75-2.65,2.42-2.61,9.65,0,12.63,3.63,4.15,6.43,4.32,11.55,.16m158.72,149.84c-1.84-3.94-10.34-7.09-13.91-4.96-2.05,1.22-2.85,3.98-.35,4.56,4.52,1.06,9.35,.8,14.26,.4m.09-11.32c-2.58-3.22-10.02-5.46-13.42-3.83-.91,.44-1.96,1.65-2,2.55-.04,.87,1.01,2.46,1.78,2.59,4.2,.71,8.46,1.11,12.71,1.45,.29,.02,.68-1.26,.93-2.77Z" style="fill: #fefefd;"/>
  <path d="M583.6,522c0,17.14,0,33.79,0,50.96-7.73-3.29-14.99-6.69-22.48-9.52-26.2-9.89-53.11-17.96-81.31-15.9-20.89,1.53-41.6,6.1-62.28,9.94-29.61,5.49-59.02,12.12-88.7,17.15-18.3,3.1-36.94,4.44-56.01,2.86V250.92c8.85,.78,17.59,1.62,26.34,2.32,26.89,2.14,53.86,3.72,80.53-1.51,10.95-2.15,21.44-6.65,32.15-10.07,26.11-8.34,52.85-12.74,80.27-12.2,30.36,.61,59.46,6.65,86.48,21.22,3.67,1.98,5.13,4.12,5.12,8.39-.13,87.48-.1,174.96-.1,262.94m-56.32-237.97c-2.77-1.04-5.48-2.28-8.31-3.1-11.78-3.41-29.7,9.4-33.81,18.32-1.83,3.97-1.3,7.9,1.15,11.33,2.29,3.21,5.08,6.06,7.78,9.21-5.38,5.07-10.9,10.26-16.61,15.64,1.29,1,2.13,1.8,3.1,2.39,15.84,9.75,31.11,8,45.92-2.37,14.47-10.14,13.36-21.89-2.79-29.49-.23-.11-.37-.38-.7-.72,4.8-4.07,9.57-8.11,14.79-12.54-3.59-3-6.74-5.64-10.52-8.68m17.48,230.83c.88,.4,2.28,1.39,2.57,1.13,4.3-3.84,8.48-7.82,12.59-11.86,.29-.28-.23-1.39-.49-2.66-1.38,.84-2.28,1.47-3.25,1.96-3.2,1.6-6.92-.38-7.18-3.95-.72-9.77-1.46-19.53-1.94-29.31-.27-5.4-10.42-17.97-15.75-18.93-.64-.12-1.37-.16-1.97,.03-8.07,2.48-15.24,7.19-19.13,14.23-2.22,4.01,0,10.42,.04,15.75,.01,1.54-.25,3.25-.92,4.61-1.17,2.36-3.03,4.38-4.12,6.77-3.74,8.18-1.41,19.18,5.08,23.42,1.22,.79,3.67,.76,5.03,.06,3.82-1.95,7.37-4.43,11.02-6.71,4.53-2.82,8.71-3.23,12.64,1.25,1.38,1.58,3.46,2.54,5.81,4.24m-231.42-220.05c-2.99,3.1-6.2,6.01-8.93,9.33-9.08,11.03-6.95,36.59,8.79,44.33,10.33,5.08,19.73,5.53,30.14,2.84,5.85-1.52,12.18-5.05,15.81,3.68,.34,.82,2.43,.91,3.71,1.33,.06-1.49,.52-3.11,.08-4.42-.62-1.83-2.72-3.4-2.79-5.13-.36-8.95-.31-17.92-.32-26.88,0-10.49,.12-20.97,.06-31.46,0-.77-.85-1.94-1.54-2.17-.63-.2-2.23,.55-2.31,1.05-.99,6.19-4.85,4.18-8.56,3.28-11.62-2.8-23.22-4.91-34.14,4.21m51.69,194.72v28.21h11.93c0-1.57,0-2.88,0-4.18,.01-11.99,0-23.98,.04-35.98,0-2.72,4.78-8.44,6.47-7.5,2.81,1.58,7,4.06,7.16,6.4,.61,8.9,.07,17.9-.49,26.84-.4,6.4,.1,12.41,3.94,18.39,5.68-5.93,13.24-9.14,18.22-15.25-.29-.47-.57-.95-.86-1.42-2.05,.23-4.1,.45-6.29,.7-.72-11.78-1.53-23.54-2.13-35.31-.27-5.27-1.89-9.86-6.22-12.95-1.12-.8-3.75-.75-4.93,.05-4.49,3-8.67,6.47-13.31,10.03-2.79-4.86-5.24-9.15-7.84-13.68-4.73,4.32-9.23,8.43-14.09,12.87,7.33,5.62,9.38,13.16,8.39,22.78m101.23-73.99c-15.69-.31-23.62-3.04-26.11-17.56-.19-1.09-1.84-1.94-2.81-2.9-.76,1.15-2.24,2.33-2.18,3.44,.43,7.78,1.1,15.54,1.9,23.29,.11,1.04,1.36,1.96,2.09,2.93,.95-.77,2.44-1.35,2.77-2.33,1.24-3.67,3.97-4.16,7.15-3.84,2.47,.25,4.94,.63,7.38,1.09,16.56,3.12,24.91-1.56,28.86-16.21,3.83-14.2-2.9-24.32-17.39-26.45-4.56-.67-9.18-1.5-13.49-3.05-2.38-.86-5.53-3.17-5.84-5.2-.3-1.98,2.13-5.02,4.15-6.59,7.27-5.66,19.17-3.08,26.59,5.37,1.04,1.18,2.1,2.34,3.32,3.69,2.72-6.32,1.07-18.8-3.42-22.67,.51,6.52-3.76,5.48-7.42,5.43-1.49-.02-2.97-.26-4.45-.34-9.01-.46-17.04,1.79-23.58,8.39-8.98,9.05-7.5,18.92,4.04,24.16,7.2,3.27,14.76,5.73,22.04,8.82,5.39,2.29,7.87,6.92,7.15,12.32-.63,4.74-3.38,7-10.74,8.2m-121.25,12.78c2.85,2.39,5.7,4.79,7.65,6.43,5.74-3.93,10.53-7.2,15.08-10.32,2.18,4.7,3.91,8.45,6,12.97,6.24-5.98,11.51-11.03,16.78-16.07-9.31-.12-9.63-.32-9.49-9.25,.13-7.8,.51-15.59,.84-23.39,.21-4.98-6.68-16.67-11.14-18.7-.74-.34-1.63-.85-2.33-.7-9.5,2.06-16.77,7.61-21.09,16.02-3.31,6.43-1.22,13.11,2.75,19.03-9.6,10.42-10.61,14.74-5.05,23.99m121.87-137.02c1.17-1.11,2.34-2.23,3.57-3.4-2.26-2.9-4.18-5.61-6.34-8.11-2.88-3.32-6.57-5.26-11.03-4.47-17.62,3.14-31.07,26.51-24.98,43.43,3.69,10.26,11.87,15.56,21.61,19.05,8.49,3.04,15.95,1.5,22.46-4.74,.36-.34,.82-.58,1.17-.93,1.87-1.86,3.73-3.74,5.58-5.61-2.77-.26-5.65-1.15-8.29-.67-11.34,2.08-21.02-2.71-25.82-13.56,7.1-6.76,14.32-13.63,22.06-21m-159.86,188.53c-5.79,20.52,9.28,36.81,25.8,42.65,4.38-6.18,8.74-12.22,12.94-18.37,.6-.88,.4-2.31,.56-3.48-1.21,.1-2.47,0-3.62,.32-3.21,.89-6.65,3.24-9.49,2.64-4.44-.94-8.47-3.84-13.41-6.27,11.15-9.17,21.15-17.38,30.54-25.1-4.71-7.55-9.23-14.8-13.98-22.4-12.14,6.57-24.07,14.4-29.36,30.01m74.22-180.36c.64,2.12,1.8,4.24,1.83,6.37,.18,11.96,.09,23.93,.09,36.45h13.71v-43.71c1.72-.99,3.12-1.8,5.06-2.92,2.84,3.36,5.6,6.64,8.55,10.14,4.56-3.39,8.48-6.15,12.19-9.17,.86-.69,1.02-2.24,1.5-3.39-.98-.31-1.99-.55-2.93-.96-1.1-.47-2.34-.87-3.16-1.67-2.59-2.54-5-5.25-7.46-7.88-4.46,2.76-8.68,5.36-12.61,7.8-4.44-2.55-8.45-4.85-13-7.46-4.43,3.83-9.1,7.87-14.15,12.23,3.88,1.48,6.81,2.59,10.38,4.18m-50.35,125c1.29-1.87,2.59-3.75,4.2-6.09-1.38,.16-2.15,.27-2.92,.35-9.88,1.05-18.03-2.36-23.96-10.2-5.73-7.59-5.49-16.1-2.08-24.53,2.86-7.08,7.92-8.19,13.66-3.2,2.44,2.12,4.5,4.68,6.92,7.25,3.46-3.67,6.75-7.15,10.31-10.92-3.16-4.24-6.48-8.71-9.84-13.24-15.1,6.61-27.86,14.75-32.47,31.62-4.22,15.44,1.23,28.56,15.96,34.67,4.35,1.8,9.77,1.93,14.53,1.38,1.97-.23,3.5-4.24,5.69-7.1m87.6-10.28c-1.45-1.69-3.9-3.22-4.19-5.1-1.29-8.15-1.95-16.39-2.87-24.87,7.32-.93,13.81-1.76,20.08-2.56,1.53-5.22-.7-5.93-4.82-5.3-3.73,.58-7.55,.58-10.8,.8-4.55-8.87,1.17-16.78,1.03-25.09-6.75,10.49-13.11,20.81-25.03,26.64,1.45,1.02,1.94,1.6,2.52,1.73,4.77,1.02,6.11,3.85,5.77,8.65-.49,6.96-.37,13.99-.05,20.97,.16,3.4,.87,6.97,2.19,10.1,2.25,5.35,10.13,9.85,13.11,7.38,4.18-3.46,7.43-8.03,11.08-12.12-.31-.4-.63-.8-.94-1.2-2.15,.14-4.3,.28-7.07-.04m14.08,37.78c-2.85,4.06-5.25,8.57-8.68,12.06-3.15,3.2-2.47,4.95,.27,7.63,1.41,1.37,2.62,3.62,2.72,5.53,.33,6.77,.02,13.58,.17,20.36,.16,7.39,3.16,12.15,9.12,13.82,2.13,.59,5.78,.65,6.81-.62,4.32-5.31,7.91-11.22,12.59-18.11-2.4,.63-3.63,.92-4.84,1.28-2.32,.69-5.66,2.73-6.73,1.88-2.3-1.82-3.67-5.01-4.92-7.86-.69-1.58-.37-3.6-.54-5.41-.87-9.15-.65-9.53,8.22-10.81,3.56-.51,5.84-1.51,3.69-5.86-3.62-.33-7.37-.67-11.9-1.08,.48-4.46,1.31-8.68,1.26-12.9-.04-3.89,3.24-8.11-.84-12.4-2.19,4.31-4.11,8.09-6.4,12.5m88.08-29.79c1.69-4.39,7.34-7.14,5.82-14.41-1.82,1.99-2.63,3.2-3.74,4-1.26,.92-2.83,2.18-4.18,2.09-10.37-.69-20.05-13.84-17.31-23.76,.55-2.01,2.84-4.48,4.78-4.98,3.58-.92,7.5-.68,11.27-.68,6.38,.01,7.92-1.11,9.59-7.51q-10.6-6.98-20,.42c-2.35,1.85-4.69,3.73-6.93,5.71-14.37,12.74-10.79,36.53,6.59,43.92,8.06,3.43,9.06,3.12,14.11-4.8m-59.28,46.9c-1.09,4.43,1.67,2.34,3.25,1.83,4.58-1.49,10.37,2.53,10.41,7.31,.04,5.33,.6,10.71,0,15.96-.92,8.05,1.67,13.87,9.41,17.7,3.65-3.92,7.51-8.07,11.55-12.41-6.51-2.22-7.1-3.02-7.13-9.07-.02-3.5-.41-7.05,.07-10.48,1.22-8.67-1.65-15.81-7.02-22.41-2.42-2.97-4.48-3.63-7.33-.93-4.22,4.01-8.46,7.99-13.21,12.5m102.09-45.54c-8.17-1.54-8.5-1.94-8.5-10.24,0-6.15-.32-12.32,.11-18.44,.35-4.99-1.33-8.84-4.08-12.81-2.5-3.59-4.64-2.97-7.21-.65-4.07,3.67-8.09,7.38-12.05,11.17-.81,.77-1.23,1.94-2.19,3.54,1.58,0,2.24,.13,2.84-.02,6.81-1.69,10.13,.85,10.18,7.9,.04,5.65,.52,11.36-.11,16.94-.9,7.93,2.68,12.83,9.2,16.44,2.51-2.15,5.23-4.12,7.49-6.53,1.95-2.09,3.37-4.67,4.32-7.29m-24.3-66.55c-3.59,4.27-2.99,10.58,1.35,14.33,3.14,2.72,6.13,2.07,10.01-2.41,.77-.89,1.17-2.23,1.44-3.43,1.49-6.69-3.94-9.28-7.52-13.14-1.74,1.54-3.23,2.85-5.27,4.65m-69.88,93.5c1.08,.72,2.16,1.44,3.44,2.31,3.75-3.96,7.42-7.83,10.64-11.23-4.08-2.9-7.72-5.48-10.99-7.81-3.49,3.14-7.24,6.53-11.09,10,2.36,1.99,4.88,4.13,8,6.74m79.8-133.65c.33,.05,.66,.16,.99,.13,3.33-.27,8.78,2.74,9.42-1.65,.67-4.59-5.37-4.23-8.86-5-1.39-.31-3.12,.97-4.7,1.53,.82,1.57,1.63,3.14,3.15,4.99m6.19,4.2c-2.1-.34-4.2-.95-6.3-.9-1.25,.03-2.47,1.09-3.71,1.68,.81,1.09,1.42,2.83,2.46,3.14,3.8,1.13,7.74,1.78,11.62,2.61l1.2-2.09c-1.5-1.43-3-2.87-5.29-4.45Z" style="fill: #fdfcfc;"/>
  <path d="M558.97,1129.03c-7.41-11.16-11.26-23.75-14.35-36.58-4.63-19.22-6.7-38.62-2.66-58.23,1.93-9.38,4.97-18,13.6-23.96,1.9-1.31,1.66-6.75,1.23-10.14-.6-4.69-1.19-9.91-7.35-12.54-.83,4.94-1.2,9.37-2.38,13.58-1.17,4.19-3.14,8.16-4.74,12.17-10.85-3.87-14.45-11.98-12.05-24.28,1.39-7.09,3.75-13.46,8.35-19.27,4.83-6.1,8.87-12.9,8.37-21.28-.25-4.15-1.71-6.02-6.05-7.39-1.54,3.38-2.76,6.99-4.74,10.13-1.87,2.97-4.53,5.45-7.23,8.59-10.04-18.89-9.2-37.35-3.54-55.95,5.04-16.58,13.95-31.02,25.31-44.04,1.38-1.58,1.88-3.94,2.79-5.94-.53-.42-1.06-.85-1.59-1.27-6.94,4.42-13.87,8.84-21.21,13.52-6.35-33.69,12.27-59.14,46.72-65.51-11.25-4.9-11.33-4.97-12.35-9.3,10.01-2.77,20.32-4.67,29.86-8.5,13.59-5.45,18.5-16.02,15.22-30.02-6.59,9.31-13.22,18.28-25.42,19.09-2.57,.17-5.28-1.69-9.03-3.01,2.81-1.76,4.38-2.63,5.82-3.66,4.7-3.35,6.73-8.08,5.23-12.97-1.54-5.02-5.57-7.47-10.43-8.07-3.41-.42-7.03-.23-10.41,.43-9.06,1.77-16.7-2.42-20.1-11.97,9.78,3.29,17.32-1.52,25.12-5.85,15.12-8.39,28.97-5.05,40.7,9.48,1.44,1.78,2.78,3.63,4.24,5.54,4.85-7.78,3.53-18.22-4.14-23.6-5.69-3.99-12.7-6.06-19.05-9.14-1.58-.77-3.54-1.82-4.19-3.25-6.43-14.24-17.92-20.41-32.92-20.64-3.78-.06-5.86-.98-6.65-4.64-.21-.95-.68-1.87-1.13-2.74-3.7-7.09-10.27-11.4-16.11-10.61-8.26,1.12-14.35,7-16,15.46-11.12-7.11-14.21-19.01-7.93-30.52,4.01-7.36,9.88-12.84,16.98-17.17,3.32-2.02,5.66-1.32,7.17,2.1,1.8,4.08,3.22,8.35,5.2,12.34,2.65,5.35,5.05,6.24,12,4.87-.94-2.32-1.82-4.54-2.74-6.75-1.46-3.5-3.55-6.89-4.22-10.54-.41-2.26,.59-5.78,2.26-7.2,2.67-2.28,6.25-1.76,9.01,.94,.71,.7,1.35,1.48,2.03,2.2,2.61,2.76,5.11,2.74,6.42-.97,4.37-12.38,23.05-19.28,35.84-16.45,8.8,1.95,17.39,5.27,25.73,8.78,13.64,5.74,27.08,11.31,42.17,3.27,.47,7.59-3.04,11.87-8.98,14.77,11.32,3.61,18.48,1,29.4-10.84,1.82,5.8,1.05,10.98-1.62,15.87-2.77,5.09-7.38,8.07-12.76,9.7-5.16,1.57-10.46,2.73-16.24,4.2,1.84,.82,3.19,1.4,4.52,2.01,6.51,3.01,10.56,7.64,11.09,15.2,.23,3.2,1.41,6.46,2.74,9.44,3.19,7.15,9.29,8.96,16.61,7.97-2.98,9.86-7.54,10.51-22.68,2.99,.46,1.97,.42,3.7,1.21,4.88,4.9,7.31,6.22,15.66,6.92,24.08,1.01,12.29,5.39,22.48,17.17,29.04-5.53,3.11-9.45,.75-13-2.17-3.51-2.9-6.67-6.23-10.7-9.16,10.89,18.31,3.5,35.3-2.72,52.93-8.48-4.92-9.86-16.81-20.02-19.34,3.83,9.26,8.32,18.19,11.2,27.61,2.95,9.66,3.44,19.82,1.25,29.84-.47,.26-.95,.51-1.42,.77-4.78-6.71-9.56-13.42-14.78-20.75-1.89,10.03,5,27.04,13.4,34.68,8.73,7.93,15.21,17.46,20.61,27.91,5.89,11.42,4.19,23.26,2.74,35.13-1.18,9.72-2.65,19.4-4.09,29.77-9.61-5.42-11.03-16.68-18.14-25.6,0,4.41-.56,7.51,.1,10.32,2.55,10.85,8.11,20.06,15.11,28.78,3.3,4.1,4.81,10,6.03,15.34,1.67,7.33,2.78,14.91-.46,22.79-7.05-5.74-7.26-16.68-16.54-19.67,12.19,32.37,18.28,64.41,.54,96.76-4.17-17.2-8.35-34.45-12.75-52.57-13.57,10.6-18.16,27.46-30.99,37.56-3.91-32.95-9.77-65.14-24.8-94.85l-1.51-.09c-1.14,2.77-2.34,5.52-3.4,8.32-8.89,23.51-18.17,46.89-26.53,70.6-9.97,28.26-11.39,57.05-2.97,86.55-.03,.49-.24,.72-.24,.72m38.33-493.48c-8.08-.13-15.42,2.13-21.74,7.18-1.17,.93-1.51,2.89-2.23,4.38,1.54,.73,3.2,2.23,4.6,2.02,3.26-.48,6.39-1.79,9.96-2.88-3.34,6.02-1.94,11.37,1.95,17.54-4.66-1.36-8.18-2.39-13.05-3.81,1.61,2.3,2.27,4.03,3.53,4.92,6.39,4.47,13.77,7.19,21.12,4.29,12.47-4.93,24.45-11.08,36.26-16.55-7.62-3.67-15.18-7.56-22.95-10.98-5.39-2.37-11.06-4.09-17.45-6.11Z" style="fill: #fefefd;"/>
  <path d="M992.91,454.97c5.88-.68,11.3-1.53,16.74-1.99,14.12-1.19,23.91,5.52,30.22,17.57,2.64,5.03,4.25,10.6,5.89,16.27-9.91-5.15-19.89-6.83-30.37-3.76-2.65,.78-5.19,2.16-7.56,3.63-21.72,13.43-45.08,22.01-71.05,24.26v-59.82c18.03,7.82,36.9,5.25,56.13,3.84Z" style="fill: #fdfcfb;"/>
  <path d="M996.8,324.76c19.9-6.4,45.99,6.34,48.07,31.13-12.18-6.26-23.82-4.23-35.67,1.33-17.21,8.08-34.57,15.88-52.16,23.09-5.78,2.37-12.47,2.52-19.3,3.8v-62.43c19.34,8.71,38.8,10.4,59.06,3.08Z" style="fill: #fdfcfb;"/>
  <path d="M145.61,455.56c15.68-13.09,47.97-11.33,55.88,15.69,5.8,19.81-4.3,39.73-23.38,44.15-19.37,4.49-39.41-4.06-43.66-26.64-2.39-12.69,1.07-24.02,11.17-33.2Z" style="fill: #fdfdfd;"/>
  <path d="M202.68,348.38c-2.95,15.68-11.83,25.55-25.36,28.46-14.72,3.17-28.95-2.05-36.51-13.41-13.86-20.82-2.94-49.78,21.16-54.06,27.02-4.8,43.06,14.94,40.71,39Z" style="fill: #fefefd;"/>
  <path d="M574.59,712.82c-10-5.1-20.37-4.49-30.57-3.23-12.99,1.6-25.84,4.22-38.8,6.11-7.41,1.08-14.63-.22-21.19-3.92-11.96-6.74-14.43-18.49-6.29-29.48,1.72-2.33,3.88-4.33,6.46-7.18,.29,1.66,.46,2.25,.49,2.85,.84,14.5,9.87,19.71,23.06,19.88,13.8,.18,27.62-.97,41.42-.75,10.4,.17,19.42,4.14,25.24,13.46,.4,.64,.36,1.54,.18,2.26Z" style="fill: #fdfcfb;"/>
  <path d="M257.01,362.74c-.76,1.6-1.5,3.7-2.27,3.71-12.45,.21-24.91,.15-37.57,.15v-38.96h39.85c0,11.71,0,23.17,0,35.1Z" style="fill: #fbf9f9;"/>
  <path d="M216.96,492.99v-26.7h39.68v38.51h-39.68v-11.82Z" style="fill: #fff;"/>
  <path d="M972.8,1132.74c.55-.87,.85-1.47,1.16-2.07-4.87,28.28-15.05,54.01-31.42,77.1-1.31,1.84-3.82,2.82-5.77,4.21-1.31-1.99-3.26-3.81-3.82-5.99-3.19-12.56-1.03-25.01,1.3-37.43,1.15-6.1,3.44-10.47,9.94-13.26,11.24-4.82,20.26-13.14,28.61-22.56Z" style="fill: #fcfbfa;"/>
  <path d="M256.41,1201.76c-4.48-8.6-9.31-16.76-12.62-25.51-5.3-14.01-9.6-28.4-14.41-42.91,9.89,4.01,19.05,7.63,28.11,11.48,1.46,.62,3.1,2.06,3.61,3.49,5.22,14.55,6.75,29.44,2.66,44.5-1,3.69-1.65,8.43-7.36,8.94Z" style="fill: #fdfcfb;"/>
  <path d="M881.19,1109.79c-3.45-2.02-7.84-3.14-9.37-5.86-1.32-2.34,.66-6.51,1.11-9.88,.95-7.17,1.84-14.35,2.88-22.51,9.85,8.28,18.86,15.84,28.62,24.04-6.53,5.77-12.67,11.22-18.94,16.76-1.49-.87-2.75-1.6-4.3-2.55Z" style="fill: #fcfbfa;"/>
  <path d="M330.77,1091.23c-4.96-6.44-9.83-12.51-14.33-18.85-2.73-3.84-1.73-7.41,1.85-10.47,5.05-4.3,9.95-8.76,15.94-14.05-1.28,17.99,1.04,34.64,6.98,50.76-.43,.28-.86,.56-1.29,.83-2.97-2.66-5.93-5.31-9.15-8.22Z" style="fill: #fcfbfa;"/>
  <path d="M872.27,1114.54c2.07,1.43,3.85,2.61,6.41,4.29-5.88,4.22-11.36,8.15-16.83,12.08-.44-.41-.88-.82-1.32-1.23,2.45-5.54,4.9-11.09,7.58-17.14,1.39,.62,2.64,1.18,4.17,1.99Z" style="fill: #f8f6f5;"/>
  <path d="M559.3,1128.69c.18,.55,.26,1.2,.33,1.86-.23-.3-.45-.61-.67-1.22,.01-.31,.23-.53,.34-.65Z" style="fill: #fefefd;"/>
  <path d="M831.95,1226.94c.41-.4,1.05-.57,1.69-.75-.17,.35-.33,.69-.74,1.23-.4,.04-.56-.1-.95-.48Z" style="fill: #fdfdfd;"/>
  <path d="M720.02,754.97c-.37-.11-.57-.39-.77-.67,.26-.06,.52-.12,1.01-.03,.23,.15-.07,.53-.24,.7Z" style="fill: #fefefe;"/>
  <path d="M331.81,1208.19c-.26-.23-.41-.57-.57-.91,.25,.01,.5,.03,.81,.32,.06,.28-.14,.49-.24,.59Z" style="fill: #fdfdfd;"/>
  <path d="M477.94,1306.96c0,.21,.03,.44,.02,.67,0,.04-.24,.06-.37,.09-.04-.2-.07-.41,.16-.65,.27-.04,.22-.09,.19-.11Z" style="fill: #fdfdfd;"/>
  <path d="M711.32,1212.35c-.22,0-.6-.17-.73-.43,.24-.09,.58,.25,.73,.43Z" style="fill: #6e0303;"/>
  <path d="M694.97,397.08c.01,11.97,.07,23.46-.02,34.95-.01,1.3-.84,2.59-1.29,3.89-.93-1-1.7-2.33-2.84-2.91-1.49-.76-3.42-1.57-4.93-1.26-9.94,2.03-19.86,4.58-30.05,2.27-12.95-2.93-25.23-7.35-29.42-21.83-4.54-15.7,.28-28.7,14.15-38.8,13.16-9.59,28.29-11.65,44.05-10.05,3.01,.31,5.49,.9,7.3-2.23,.34-.58,2.22-1.04,2.38-.82,.72,.99,1.49,2.25,1.48,3.4-.06,8.49-.3,16.98-.51,25.46-.06,2.48-.2,4.96-.31,7.93m-7.55-4.01c1.52-.48,3.03-.97,4.73-1.51-.9-3.28-1.2-6.34-2.53-8.85-4.75-8.94-15.94-13.79-26.42-11.46-9.74,2.17-17.56,7.14-20.85,17.11-2.22,6.73,0,10.09,6.89,9.49,12.5-1.08,24.92-3.05,38.19-4.78m-3.35,30.64c4.74-3.99,7.52-8.93,7.49-16.07-5.59-.67-11.27-1.44-16.98-2.03-9.38-.97-18.76-1.89-28.15-2.71-3.28-.29-5.42,1.07-4.09,4.69,6.91,18.86,27.71,26.08,41.74,16.13Z" style="fill: #70090a;"/>
  <path d="M766.27,473.16c4.06-3.69,7.87-7.15,11.61-10.54,8.8,4.82,11.72,10.41,10.89,19.74-.5,5.62-.63,11.28-.9,16.92-.05,.99-.28,2.17,.14,2.96,2.92,5.59,8.5,4.91,13.45,5.22,3.71,.23,7.85-.33,8.07-5.28,.31-6.79,.42-13.64-.26-20.38-.17-1.74-3.4-3.58-5.59-4.58-1.82-.83-4.17-.51-6.29-.69-.45-.46-.89-.91-1.34-1.37,4.61-4.51,9.22-9.02,14.58-14.26,5.06,5.6,9.1,9.91,12.9,14.43,.69,.83,.53,2.49,.52,3.77-.03,8.97-.41,17.95-.05,26.9,.14,3.35,1.96,6.64,3.35,11.02-1.7,1.48-4.38,4.16-7.45,6.27-.91,.63-3.4,.2-4.32-.66-2.95-2.76-5.5-5.95-8.53-9.34-4.77,2.05-10.29,4.57-15.92,6.81-7.4,2.95-15.46-1.88-16.04-10-.5-7.09-.07-14.25-.06-21.38,0-9.06-1.75-11.33-10.59-13.37,.58-.72,1.08-1.34,1.83-2.2Z" style="fill: #6f0708;"/>
  <path d="M682.89,278.85c-10.07,4.72-10.17,4.76-5.95,14.68,3.16,7.43,6.61,14.73,11.26,22.12,3.2-10.1,6.71-20.12,9.51-30.33,2.02-7.37-.56-11.15-7.84-13.63-.84-.28-1.49-1.11-2.27-1.72,4.45-4.03,26.69-5.53,31.95-1.86-1.51,.99-2.66,2.16-4.04,2.58-6.64,2.01-9.53,7.01-11.58,13.15-6.95,20.82-14.12,41.57-21.23,62.34-.21,.61-.69,1.12-1.22,1.94-3.56-9.07-6.71-18.05-10.58-26.7-5.47-12.22-11.41-24.24-17.28-36.28-3.31-6.77-8.22-11.13-16.48-10.25-1.17,.12-2.51-1.32-3.77-2.04,1.45-.88,2.97-2.62,4.33-2.5,14.21,1.32,28.39,2.91,42.57,4.49,2.08,.23,4.89,.23,2.63,4.01Z" style="fill: #70090a;"/>
  <path d="M727.81,408.34c-.18-5.54,.03-10.74-.94-15.72-.56-2.86-2.77-5.58-4.72-7.96-2.93-3.57-6.44-5.01-10.64-1.48-1.63,1.37-3.57,2.49-5.54,3.29-1.01,.41-2.4-.14-3.62-.25,.36-1.31,.29-3.19,1.15-3.83,6.65-4.93,13.44-9.69,20.31-14.31,.85-.57,2.7-.55,3.6,0,4.13,2.53,8.09,5.34,12.77,8.51,3.56-3.29,7.92-7.32,11.7-10.81,6.57,4.51,13.03,8.94,19.52,13.39-5.14,8.54-14.08,9.6-28.56,1.95-.11,3.84-.92,7.22-.15,10.18,1.76,6.71,7.14,10.63,12.84,13.89,4.15,2.38,8.53,4.36,13.28,6.77-4.56,4.7-9.16,9.7-14.12,14.33-.94,.88-3.9,1.01-4.88,.21-4.74-3.89-9.11-8.21-13.09-11.89-5.04,5.09-10.25,10.52-15.69,15.7-1.18,1.12-3.21,1.33-5.09,1.63,5.98-6.81,9.76-14.53,11.87-23.6Z" style="fill: #6f0809;"/>
  <path d="M864.96,306.42c.86,1.85,1.95,3.43,1.93,5-.13,7.64-.24,15.32-.99,22.92-.53,5.39,1.3,9.24,5.38,12.4,1.3,1.01,2.49,2.16,4.26,3.71-4.48,4.9-8.88,9.7-13.92,15.2-2.73-3.69-5.12-6.91-8.45-11.4-6.16,3.4-12.98,7.16-20.04,11.05-12.67-10.55-13.57-23.67-2.03-40.34-1.51-1.34-3.45-2.48-4.5-4.17-.76-1.23-.78-3.29-.4-4.8,1.84-7.33,16.09-18.17,23.35-16.7,5.29,1.07,10.11,4.48,15.41,7.13m-16.45,26.61c-3.34-1.39-6.69-2.78-10.19-4.24-2.81,4.3-3.35,8.92-1.56,13.36,1.51,3.75,3.52,7.68,6.42,10.31,1.26,1.14,5.31-.83,8.09-1.37,.88-.17,1.78-.26,2.62-.38v-15.49c-1.59-.64-3.12-1.26-5.38-2.19m3.47-17.24c-13.54-10.53-14.11-9.5-21.76,1.82-.15,.23-.05,.62-.14,2.09,7.48,3.81,15.36,7.82,23.24,11.83,.43-.38,.87-.76,1.3-1.14-.69-4.69-1.38-9.37-2.64-14.6Z" style="fill: #6f0809;"/>
  <path d="M665.07,506.85c.08-8.47,4.85-14.27,9.59-20.34-4.35-7.64-4.02-14.87,2.61-21.35,2.49-2.43,4.67-5.2,7.29-7.46,7.61-6.58,11.87-6.15,18.63,1.13,3.29,3.54,5.21,7.04,4.41,12.27-.85,5.53-.52,11.26-.57,16.9-.06,7.74,3.87,10.72,11.5,8.92,.58-.14,1.26,.14,3.02,.38-5.84,6.95-11.2,13.32-16.93,20.14-3.66-3.13-6.98-5.97-11.38-9.73-6.25,4.64-13.2,9.81-20.49,15.22-4.88-3.86-6.57-9.59-7.68-16.06m13.64-37.32c-2.69,4.34-3.14,9.43-.23,13.1,3.85,4.85,9.84,5.43,16.17,3.88-.22-4.29,.57-8.82-.93-12.4-1.37-3.27-4.89-6.06-8.11-7.93-1.24-.72-4.29,1.69-6.9,3.35m2.28,34.88c4.64,4.05,7.58-.76,10.81-2.42,4.85-2.49,1.23-7.23,2.42-10.52h-13.17c-1.86,3.94-3.7,8-.06,12.93Z" style="fill: #70090a;"/>
  <path d="M833.96,432.89c-7.78-16.65,1.63-36.99,17.55-46.29,9.79-5.72,14.32-5.3,21.83,3.33,8.29,9.52,10.85,20.21,6.93,32.77-3.12,10.02-9.96,16.4-17.47,22.77-7.04,5.97-12.81,6.54-19.59,.03-3.63-3.49-6.15-8.12-9.26-12.62m34.04-22.94c-3.3-3.64-6.15-7.85-9.98-10.8-7.04-5.41-10.92-3.94-14.37,4.52-.31,.75-.55,1.54-.74,2.33-3.04,12.62,5.18,25.63,19.99,33.04,5.61-8.73,7.59-18.09,5.1-29.08Z" style="fill: #6f0809;"/>
  <path d="M770.68,300.55c-1.35-1.18-2.4-2.14-4.13-3.73,12.25-6.01,20.11-15.72,27.4-26.34,1.24,7.38-5.07,14.08-.1,21.66,6.49,0,13.48-.16,20.44,.13,1.41,.06,2.75,1.79,4.12,2.75-1.25,1.12-2.38,3.03-3.76,3.23-8.02,1.18-16.1,1.96-25.19,2.99,1.11,10.94,2.05,21.62,3.38,32.26,.38,3.04,1.75,6.07,6.06,3.68,.59-.33,2.41,.21,2.56,.7,.35,1.14,.5,2.76-.07,3.69-2.43,3.95-5.1,7.76-7.77,11.55-2.71,3.84-5.18,4.03-8.57,.73-5.17-5.04-6.96-11.67-7.78-18.42-1.12-9.22-1.76-18.52-2.14-27.8-.14-3.38-.71-5.79-4.43-7.07Z" style="fill: #6f0809;"/>
  <path d="M871.45,478.48c2.16-1.59,4.04-2.96,6.18-4.53,2.73,2.13,5.39,4.37,8.23,6.35,2.63,1.84,5.45,3.39,9.13,5.65-2.4,5.4-8.85,8.3-13.72,13.46-4.2-3.81-8.22-7.45-12.19-11.05-4.56,.95-5.26,3.94-5.18,8.01,.23,11.97,.08,23.94,.08,36.27h-14.93c0-4.89-.01-9.83,0-14.76,.02-6.83,.08-13.66,.1-20.49,.02-7.4-2.1-9.93-9.51-11.31-1.76-.33-3.53-.53-6-.89,6.31-5.15,12.03-9.81,18.93-15.44,3.68,4.58,7.31,9.1,11.03,13.72,3.19-2,5.38-3.38,7.86-4.97Z" style="fill: #6f0809;"/>
  <path d="M798.29,381.29c3.02-1.77,5.74-3.32,8.27-4.76,5.34,5.68,10.52,11.19,15.7,16.7-6.43,6.43-14.6,5.39-23.72-3.99-7.94,5.6-11.78,12.93-8.9,19.68,7.42,17.39,20.23,21.45,37.72,14.12-.95,1.21-1.77,2.55-2.87,3.6-4.46,4.24-8.92,8.5-13.54,12.56-5.27,4.62-10.87,4.95-16.78,1.3-12.15-7.52-19.03-25.06-15.22-38.79,2.15-7.76,8.18-12.27,14.11-16.85,1.57-1.21,3.3-2.24,5.24-3.57Z" style="fill: #6f0809;"/>
  <path d="M629.57,451.59c-.22-3.88-.44-7.34-.68-11.08h16.39c0,1.73,0,3,0,4.27,.02,17.78-.2,35.56,.17,53.34,.17,8.04,1.44,8.55,9.56,6.97,.45-.09,.95,.15,3.12,.53-3.09,3.36-5.65,5.98-8.02,8.77-2.57,3.03-4.97,6.21-7.69,9.64-6.48-4.31-11.86-8.25-11.65-17.74,.4-18.08-.72-36.19-1.2-54.7Z" style="fill: #6e0506;"/>
  <path d="M732,470.54c-1.58-1.74-3.09-3.17-4.77-4.34-2.88-2.03-3.56-3.64,.07-5.75,7.39-4.29,14-9.49,18.17-17.25,.44-.81,1.68-1.19,3.74-2.55-.27,2.74-.29,4.25-.6,5.7-.44,2.08-1.44,4.1-1.57,6.19-.46,7.43-2.54,9.51,7.4,9.96,1.35,.06,3.54,1.89,3.74,3.15,.46,2.87-1.87,3.34-4.31,3.24-2.46-.11-4.93-.02-7.53-.02,0,9.92-.29,19.51,.11,29.08,.23,5.39,4.54,7.35,9.61,5.15,1.38-.6,2.87-.94,4.7-.81-3.83,5.98-6.9,12.61-13.98,15.17-5.59,2.02-14.08-3.62-14.59-10.23-.75-9.89-.44-19.85-.52-29.79-.02-2.15,.2-4.31,.31-6.89Z" style="fill: #70090a;"/>
  <path d="M720.43,293.42c3.12-2.78,5.91-5.39,8.85-7.84,2.64-2.2,4.98-2.1,7.9,.27,5.98,4.86,9.03,10.42,7.96,18.41-.72,5.4,.22,11-.23,16.45-.56,6.8,1.88,8.91,8.54,12.24,2.01,1.01,4.33,1.39,7.04,2.21-3.26,4.25-5.64,9.01-9.47,11.78-2.51,1.82-8.04,2.24-10.57,.65-4.59-2.88-8.55-7.17-8.54-13.7,.02-8.8-.42-17.6-.84-26.39-.06-1.24-.85-3.03-1.84-3.55-4.08-2.13-7.63-6.89-13.2-3.3-.25,.16-1.05-.54-2.24-1.19,2.33-2.13,4.36-3.97,6.64-6.06Z" style="fill: #6e0506;"/>
  <path d="M744.77,273.73c-4.84,3.92-7.64,3.75-11.27-.4-2.61-2.99-2.65-10.22,0-12.63,1.82-1.66,3.74-3.22,5.55-4.75,9.63,5.72,10.61,12.44,5.72,17.79Z" style="fill: #6f0809;"/>
  <path d="M903.67,423.67c-4.8,.06-9.63,.31-14.16-.75-2.5-.58-1.7-3.34,.35-4.56,3.56-2.13,12.07,1.02,13.81,5.31Z" style="fill: #70090b;"/>
  <path d="M903.91,412.41c-.3,1.09-.69,2.38-.98,2.36-4.25-.35-8.51-.74-12.71-1.45-.77-.13-1.83-1.72-1.78-2.59,.04-.9,1.09-2.11,2-2.55,3.4-1.63,10.84,.6,13.47,4.24Z" style="fill: #70090b;"/>
  <path d="M527.59,284.24c3.46,2.84,6.61,5.48,10.21,8.48-5.22,4.43-9.99,8.47-14.79,12.54,.32,.34,.47,.61,.7,.72,16.15,7.6,17.27,19.34,2.79,29.49-14.81,10.38-30.07,12.12-45.92,2.37-.97-.6-1.81-1.39-3.1-2.39,5.71-5.37,11.23-10.57,16.61-15.64-2.7-3.16-5.49-6.01-7.78-9.21-2.45-3.43-2.97-7.36-1.15-11.33,4.11-8.93,22.03-21.74,33.81-18.32,2.83,.82,5.54,2.06,8.62,3.3m-28.19,46.84c3.81,1.89,7.47,4.22,11.46,5.54,4.64,1.53,12.56-4.08,11.9-8.44-.32-2.11-2.66-4.58-4.73-5.63-3.72-1.89-8.32-4.54-11.82-3.72-4.02,.94-7.24,5.3-11.14,8.45,1.57,1.41,2.65,2.39,4.33,3.81m13.55-35.64c-2.21-1.11-4.35-2.41-6.64-3.3-4.93-1.92-8.18-.7-11.19,3.89,8.07,12.22,15.03,13.44,24.08,3.81-1.92-1.33-3.79-2.63-6.24-4.39Z" style="fill: #6f0809;"/>
  <path d="M544.47,514.63c-2.05-1.47-4.13-2.44-5.52-4.01-3.93-4.48-8.11-4.07-12.64-1.25-3.65,2.28-7.2,4.76-11.02,6.71-1.36,.69-3.81,.73-5.03-.06-6.49-4.23-8.82-15.24-5.08-23.42,1.09-2.38,2.96-4.41,4.12-6.77,.68-1.36,.94-3.06,.92-4.61-.05-5.33-2.26-11.74-.04-15.75,3.89-7.04,11.06-11.75,19.13-14.23,.6-.19,1.33-.14,1.97-.03,5.33,.96,15.48,13.53,15.75,18.93,.48,9.78,1.22,19.55,1.94,29.31,.26,3.58,3.98,5.56,7.18,3.95,.97-.49,1.87-1.12,3.25-1.96,.26,1.27,.78,2.38,.49,2.66-4.1,4.05-8.28,8.02-12.59,11.86-.29,.26-1.69-.72-2.86-1.35m-29.58-37.4c3.95,5.43,9.31,7.91,15.89,8.04,2.51-10.04,.99-14.54-6.25-19.16-5.94-3.79-10-1.71-10.5,5.48-.11,1.6,.42,3.25,.87,5.64m-.68,19.88c7.49,8.87,4.99,7.99,16.61,3.77v-10.38c-4.88-.78-9.51-1.51-14.52-2.31-3.07,3.07-3.17,3.4-2.09,8.92Z" style="fill: #6f0809;"/>
  <path d="M313.62,294.57c10.64-8.89,22.24-6.78,33.86-3.98,3.72,.89,7.57,2.9,8.56-3.28,.08-.5,1.68-1.25,2.31-1.05,.7,.22,1.54,1.4,1.54,2.17,.05,10.49-.07,20.97-.06,31.46,0,8.96-.04,17.93,.32,26.88,.07,1.74,2.17,3.3,2.79,5.13,.44,1.32-.02,2.94-.08,4.42-1.28-.43-3.37-.52-3.71-1.33-3.63-8.73-9.96-5.19-15.81-3.68-10.4,2.7-19.81,2.24-30.14-2.84-15.74-7.74-17.87-33.3-8.79-44.33,2.73-3.31,5.94-6.23,9.2-9.56m33.89,47.48c5.21-4.5,8-10.13,7.48-17.07-.4-5.29-.95-10.59-1.86-15.81-1.32-7.61-7.04-13-14.49-14.19-8-1.28-15.89,2.66-19.81,9.42-5.56,9.58-5.78,19.41-2.01,29.55,5.2,13.99,18.51,17.78,30.69,8.09Z" style="fill: #70090b;"/>
  <path d="M365.03,489.04c.99-9.13-1.06-16.67-8.39-22.29,4.86-4.44,9.36-8.55,14.09-12.87,2.6,4.53,5.06,8.82,7.84,13.68,4.64-3.56,8.82-7.02,13.31-10.03,1.18-.79,3.82-.84,4.93-.05,4.32,3.09,5.95,7.67,6.22,12.95,.6,11.77,1.41,23.53,2.13,35.31,2.19-.24,4.24-.47,6.29-.7,.29,.47,.57,.95,.86,1.42-4.98,6.11-12.54,9.32-18.22,15.25-3.85-5.99-4.35-11.99-3.94-18.39,.56-8.94,1.1-17.94,.49-26.84-.16-2.34-4.35-4.83-7.16-6.4-1.69-.95-6.46,4.78-6.47,7.5-.04,11.99-.03,23.98-.04,35.98,0,1.3,0,2.61,0,4.18h-11.93c0-9.38,0-18.79,0-28.7Z" style="fill: #6f0809;"/>
  <path d="M466.71,415.48c6.91-1.14,9.66-3.4,10.29-8.14,.72-5.4-1.76-10.03-7.15-12.32-7.28-3.09-14.85-5.55-22.04-8.82-11.54-5.25-13.02-15.11-4.04-24.16,6.54-6.6,14.57-8.85,23.58-8.39,1.49,.08,2.97,.32,4.45,.34,3.66,.05,7.93,1.08,7.42-5.43,4.49,3.88,6.14,16.35,3.42,22.67-1.21-1.35-2.28-2.51-3.32-3.69-7.42-8.45-19.32-11.03-26.59-5.37-2.02,1.57-4.45,4.61-4.15,6.59,.31,2.03,3.46,4.34,5.84,5.2,4.31,1.55,8.93,2.38,13.49,3.05,14.49,2.14,21.22,12.25,17.39,26.45-3.95,14.65-12.3,19.32-28.86,16.21-2.44-.46-4.91-.85-7.38-1.09-3.18-.32-5.91,.17-7.15,3.84-.33,.98-1.82,1.57-2.77,2.33-.72-.97-1.98-1.89-2.09-2.93-.8-7.75-1.47-15.52-1.9-23.29-.06-1.1,1.41-2.29,2.18-3.44,.97,.96,2.63,1.8,2.81,2.9,2.49,14.52,10.42,17.25,26.56,17.51Z" style="fill: #70090b;"/>
  <path d="M344.81,428c-5.35-8.93-4.35-13.25,5.25-23.67-3.98-5.91-6.06-12.6-2.75-19.03,4.33-8.4,11.6-13.95,21.09-16.02,.7-.15,1.59,.36,2.33,.7,4.46,2.04,11.35,13.72,11.14,18.7-.33,7.79-.72,15.59-.84,23.39-.14,8.93,.17,9.13,9.49,9.25-5.27,5.05-10.54,10.09-16.78,16.07-2.09-4.52-3.83-8.27-6-12.97-4.55,3.11-9.34,6.39-15.08,10.32-1.95-1.64-4.8-4.04-7.85-6.75m5.2-35.57c.54,4.81,3.04,8.33,7.2,10.64,3.3,1.83,11.07-.78,11.21-4.03,.16-3.71,.02-7.83-1.45-11.12-1.42-3.2-4.68-5.57-7.12-8.31-2.96,2.73-6.04,5.36-8.81,8.26-.79,.83-.72,2.49-1.03,4.57m14.05,15.27c-2.05,.23-4.12,.39-6.16,.7-1.57,.24-4.1,.27-4.44,1.11-.61,1.52-.52,3.98,.37,5.32,3.11,4.69,9.54,6.48,14.95,4.62v-14.52c-1.6,.92-2.84,1.64-4.73,2.78Z" style="fill: #6f0809;"/>
  <path d="M466.62,291.55c-7.48,7.12-14.7,14-21.8,20.76,4.8,10.85,14.48,15.64,25.82,13.56,2.63-.48,5.52,.41,8.29,.67-1.86,1.87-3.71,3.75-5.58,5.61-.35,.35-.81,.59-1.17,.93-6.51,6.24-13.97,7.78-22.46,4.74-9.75-3.49-17.93-8.79-21.61-19.05-6.08-16.92,7.36-40.29,24.98-43.43,4.45-.79,8.15,1.15,11.03,4.47,2.17,2.5,4.09,5.2,6.34,8.11-1.23,1.17-2.4,2.29-3.83,3.64m-21.56-5.03c-5.96,6.5-4.54,13.61-1.7,21.51,5.08-5.31,9.83-10.27,13.42-14.02-3.21-3.57-6.04-6.72-8.96-9.96-.48,.42-1.36,1.18-2.76,2.47Z" style="fill: #70090a;"/>
  <path d="M307.09,479.43c5.22-15.21,17.15-23.03,29.29-29.61,4.74,7.6,9.26,14.85,13.98,22.4-9.39,7.71-19.39,15.93-30.54,25.1,4.94,2.43,8.96,5.33,13.41,6.27,2.84,.6,6.28-1.75,9.49-2.64,1.15-.32,2.41-.23,3.62-.32-.17,1.18,.04,2.6-.56,3.48-4.2,6.15-8.56,12.2-12.94,18.37-16.53-5.84-31.59-22.14-25.73-43.06m14.97,10.17c4.99-3.76,9.97-7.52,14.95-11.27-2.17-2.9-4.05-5.21-5.69-7.67-1.71-2.56-3.19-5.27-4.78-7.91-13.7,8.7-16.64,19.07-8.29,29.33,1.04-.67,2.13-1.36,3.81-2.48Z" style="fill: #70090b;"/>
  <path d="M380.92,299.23c-3.25-1.35-6.17-2.46-10.05-3.94,5.04-4.36,9.72-8.4,14.15-12.23,4.54,2.61,8.56,4.91,13,7.46,3.93-2.43,8.15-5.04,12.61-7.8,2.46,2.63,4.88,5.34,7.46,7.88,.82,.8,2.06,1.2,3.16,1.67,.94,.4,1.95,.64,2.93,.96-.48,1.15-.65,2.7-1.5,3.39-3.71,3.01-7.62,5.77-12.19,9.17-2.95-3.5-5.72-6.78-8.55-10.14-1.94,1.12-3.35,1.93-5.06,2.92v43.71h-13.71c0-12.51,.09-24.48-.09-36.45-.03-2.13-1.19-4.25-2.15-6.61Z" style="fill: #6f0809;"/>
  <path d="M330.66,424.76c-1.96,2.57-3.49,6.59-5.46,6.81-4.76,.55-10.19,.42-14.53-1.38-14.73-6.11-20.18-19.23-15.96-34.67,4.61-16.87,17.37-25.01,32.47-31.62,3.36,4.52,6.69,8.99,9.84,13.24-3.56,3.76-6.84,7.25-10.31,10.92-2.42-2.57-4.48-5.13-6.92-7.25-5.73-4.99-10.79-3.87-13.66,3.2-3.41,8.43-3.66,16.95,2.08,24.53,5.93,7.85,14.08,11.25,23.96,10.2,.77-.08,1.54-.18,2.92-.35-1.61,2.34-2.91,4.21-4.43,6.37Z" style="fill: #70090a;"/>
  <path d="M418.8,414.42c2.46,.09,4.61-.05,6.76-.19,.31,.4,.63,.8,.94,1.2-3.65,4.09-6.9,8.66-11.08,12.12-2.99,2.47-10.86-2.03-13.11-7.38-1.32-3.13-2.03-6.69-2.19-10.1-.32-6.98-.44-14.01,.05-20.97,.34-4.8-1-7.62-5.77-8.65-.58-.12-1.06-.71-2.52-1.73,11.93-5.83,18.29-16.15,25.03-26.64,.14,8.31-5.58,16.22-1.03,25.09,3.25-.22,7.07-.22,10.8-.8,4.12-.64,6.35,.07,4.82,5.3-6.27,.8-12.77,1.63-20.08,2.56,.92,8.47,1.58,16.72,2.87,24.87,.3,1.87,2.74,3.41,4.51,5.33Z" style="fill: #6f0809;"/>
  <path d="M432.75,451.66c2.11-4.1,4.03-7.87,6.21-12.18,4.08,4.29,.8,8.51,.84,12.4,.05,4.21-.79,8.44-1.26,12.9,4.52,.41,8.28,.75,11.9,1.08,2.15,4.34-.13,5.34-3.69,5.86-8.87,1.28-9.09,1.66-8.22,10.81,.17,1.82-.16,3.83,.54,5.41,1.26,2.85,2.63,6.04,4.92,7.86,1.07,.85,4.41-1.19,6.73-1.88,1.21-.36,2.44-.65,4.84-1.28-4.67,6.89-8.26,12.8-12.59,18.11-1.03,1.27-4.68,1.21-6.81,.62-5.96-1.67-8.96-6.42-9.12-13.82-.15-6.79,.16-13.59-.17-20.36-.09-1.91-1.31-4.16-2.72-5.53-2.74-2.68-3.42-4.43-.27-7.63,3.43-3.49,5.83-7.99,8.87-12.37Z" style="fill: #6f0809;"/>
  <path d="M520.44,422.49c-4.84,7.61-5.84,7.92-13.9,4.5-17.38-7.39-20.96-31.18-6.59-43.92,2.24-1.98,4.58-3.86,6.93-5.71q9.4-7.41,20-.42c-1.67,6.41-3.21,7.53-9.59,7.51-3.78,0-7.69-.25-11.27,.68-1.94,.5-4.22,2.96-4.78,4.98-2.73,9.91,6.94,23.06,17.31,23.76,1.35,.09,2.92-1.17,4.18-2.09,1.11-.81,1.92-2.01,3.74-4,1.51,7.27-4.13,10.02-6.03,14.72Z" style="fill: #6f0809;"/>
  <path d="M461.63,468.83c4.49-4.25,8.73-8.24,12.95-12.25,2.85-2.7,4.91-2.04,7.33,.93,5.37,6.61,8.24,13.74,7.02,22.41-.48,3.43-.08,6.98-.07,10.48,.03,6.05,.62,6.85,7.13,9.07-4.04,4.34-7.9,8.49-11.55,12.41-7.74-3.83-10.33-9.65-9.41-17.7,.6-5.25,.04-10.64,0-15.96-.03-4.78-5.82-8.79-10.41-7.31-1.58,.51-4.34,2.6-2.99-2.09Z" style="fill: #70090b;"/>
  <path d="M563.81,423.67c-1.3,2.49-2.72,5.08-4.67,7.16-2.25,2.41-4.98,4.38-7.49,6.53-6.52-3.61-10.1-8.51-9.2-16.44,.64-5.58,.15-11.29,.11-16.94-.05-7.05-3.37-9.59-10.18-7.9-.59,.15-1.26,.02-2.84,.02,.96-1.59,1.38-2.76,2.19-3.54,3.96-3.79,7.98-7.5,12.05-11.17,2.57-2.32,4.71-2.94,7.21,.65,2.76,3.97,4.43,7.82,4.08,12.81-.43,6.12-.11,12.29-.11,18.44,0,8.3,.33,8.7,8.84,10.37Z" style="fill: #6f0708;"/>
  <path d="M539.44,356.75c1.76-1.55,3.24-2.87,4.99-4.41,3.58,3.87,9.01,6.45,7.52,13.14-.27,1.2-.66,2.54-1.44,3.43-3.88,4.48-6.86,5.13-10.01,2.41-4.34-3.76-4.94-10.07-1.07-14.58Z" style="fill: #70090b;"/>
  <path d="M468.99,450.26c-2.82-2.37-5.35-4.51-7.7-6.5,3.85-3.47,7.6-6.85,11.09-10,3.28,2.33,6.91,4.91,10.99,7.81-3.22,3.4-6.89,7.27-10.64,11.23-1.29-.86-2.37-1.58-3.74-2.54Z" style="fill: #70090b;"/>
  <path d="M548.72,316.7c-1.17-1.71-1.98-3.28-2.8-4.85,1.58-.56,3.31-1.83,4.7-1.53,3.49,.77,9.53,.41,8.86,5-.64,4.39-6.09,1.39-9.42,1.65-.32,.03-.66-.08-1.34-.27Z" style="fill: #70090b;"/>
  <path d="M555.66,321.11c1.9,1.51,3.39,2.94,4.89,4.37l-1.2,2.09c-3.89-.83-7.83-1.48-11.62-2.61-1.04-.31-1.65-2.06-2.46-3.14,1.23-.6,2.46-1.65,3.71-1.68,2.09-.04,4.2,.57,6.69,.98Z" style="fill: #70090b;"/>
  <path d="M597.73,635.54c5.97,2.01,11.64,3.73,17.03,6.1,7.77,3.42,15.33,7.3,22.95,10.98-11.81,5.47-23.79,11.62-36.26,16.55-7.34,2.9-14.73,.18-21.12-4.29-1.26-.88-1.92-2.62-3.53-4.92,4.87,1.42,8.39,2.45,13.05,3.81-3.89-6.17-5.29-11.52-1.95-17.54-3.57,1.09-6.7,2.4-9.96,2.88-1.4,.21-3.06-1.3-4.6-2.02,.72-1.49,1.07-3.45,2.23-4.38,6.31-5.05,13.66-7.31,22.16-7.18m14.23,22.9c3.16-1.64,6.33-3.29,10.48-5.45-5.72-3.1-10.65-5.78-15.57-8.45,3.64,5.84,2.54,11.07-1.56,17.06,2.83-1.3,4.43-2.03,6.66-3.17Z" style="fill: #70090b;"/>
  <path d="M687.02,393.13c-12.86,1.66-25.28,3.63-37.78,4.71-6.89,.6-9.11-2.77-6.89-9.49,3.29-9.97,11.11-14.94,20.85-17.11,10.48-2.33,21.67,2.52,26.42,11.46,1.33,2.51,1.63,5.57,2.53,8.85-1.69,.54-3.21,1.03-5.13,1.58Z" style="fill: #fdfcfb;"/>
  <path d="M683.77,423.93c-13.72,9.74-34.53,2.51-41.44-16.35-1.33-3.62,.81-4.97,4.09-4.69,9.39,.82,18.78,1.74,28.15,2.71,5.71,.59,11.39,1.36,16.98,2.03,.03,7.14-2.75,12.09-7.79,16.29Z" style="fill: #fdfcfb;"/>
  <path d="M848.87,333.18c1.89,.78,3.42,1.39,5.02,2.03v15.49c-.84,.12-1.74,.21-2.62,.38-2.79,.53-6.83,2.5-8.09,1.37-2.9-2.62-4.91-6.56-6.42-10.31-1.78-4.44-1.25-9.06,1.56-13.36,3.5,1.46,6.85,2.85,10.56,4.4Z" style="fill: #fcfbfa;"/>
  <path d="M852.26,316.05c.97,4.96,1.67,9.64,2.36,14.33-.43,.38-.87,.76-1.3,1.14-7.88-4.01-15.76-8.02-23.24-11.83,.09-1.47-.01-1.87,.14-2.09,7.65-11.32,8.22-12.35,22.04-1.55Z" style="fill: #fbf9f9;"/>
  <path d="M678.9,469.19c2.42-1.32,5.47-3.73,6.71-3.02,3.23,1.87,6.74,4.66,8.11,7.93,1.5,3.58,.71,8.11,.93,12.4-6.33,1.55-12.32,.97-16.17-3.88-2.91-3.67-2.46-8.76,.42-13.44Z" style="fill: #fbf9f9;"/>
  <path d="M680.7,504.13c-3.35-4.66-1.51-8.72,.35-12.66h13.17c-1.19,3.29,2.42,8.02-2.42,10.52-3.23,1.66-6.17,6.47-11.1,2.14Z" style="fill: #f9f8f7;"/>
  <path d="M868.12,410.34c2.37,10.6,.39,19.97-5.22,28.69-14.81-7.41-23.03-20.42-19.99-33.04,.19-.79,.43-1.57,.74-2.33,3.45-8.46,7.33-9.93,14.37-4.52,3.83,2.95,6.69,7.16,10.1,11.19Z" style="fill: #fcfbfa;"/>
  <path d="M499.11,330.85c-1.38-1.2-2.46-2.17-4.03-3.59,3.9-3.15,7.12-7.51,11.14-8.45,3.5-.82,8.1,1.83,11.82,3.72,2.07,1.05,4.41,3.51,4.73,5.63,.66,4.37-7.26,9.97-11.9,8.44-4-1.32-7.65-3.65-11.76-5.76Z" style="fill: #f9f8f7;"/>
  <path d="M513.24,295.67c2.16,1.53,4.03,2.83,5.95,4.16-9.04,9.63-16.01,8.42-24.08-3.81,3.02-4.6,6.26-5.81,11.19-3.89,2.3,.89,4.43,2.19,6.93,3.54Z" style="fill: #f9f8f7;"/>
  <path d="M514.78,476.85c-.34-2.01-.87-3.66-.76-5.26,.5-7.19,4.57-9.27,10.5-5.48,7.25,4.62,8.77,9.12,6.25,19.16-6.58-.13-11.94-2.6-15.99-8.42Z" style="fill: #f8f6f5;"/>
  <path d="M514.09,496.76c-.96-5.17-.86-5.5,2.21-8.57,5.01,.8,9.63,1.53,14.52,2.31v10.38c-11.61,4.22-9.12,5.11-16.73-4.12Z" style="fill: #f9f8f7;"/>
  <path d="M347.26,342.32c-11.93,9.43-25.24,5.64-30.44-8.36-3.77-10.14-3.55-19.97,2.01-29.55,3.92-6.76,11.8-10.7,19.81-9.42,7.45,1.19,13.16,6.58,14.49,14.19,.91,5.22,1.46,10.52,1.86,15.81,.53,6.94-2.27,12.57-7.73,17.33Z" style="fill: #fdfcfc;"/>
  <path d="M350,392.02c.32-1.68,.24-3.33,1.04-4.17,2.78-2.91,5.85-5.53,8.81-8.26,2.45,2.74,5.71,5.12,7.12,8.31,1.46,3.3,1.61,7.41,1.45,11.12-.14,3.25-7.91,5.86-11.21,4.03-4.17-2.31-6.67-5.83-7.21-11.04Z" style="fill: #f9f8f7;"/>
  <path d="M364.38,407.48c1.57-.93,2.81-1.65,4.41-2.57v14.52c-5.42,1.86-11.84,.07-14.95-4.62-.89-1.34-.98-3.8-.37-5.32,.33-.83,2.87-.86,4.44-1.11,2.04-.31,4.1-.48,6.48-.92Z" style="fill: #f9f8f7;"/>
  <path d="M445.32,286.25c1.14-1.03,2.02-1.79,2.5-2.21,2.91,3.24,5.75,6.39,8.96,9.96-3.59,3.75-8.34,8.71-13.42,14.02-2.84-7.89-4.27-15,1.96-21.77Z" style="fill: #f8f6f5;"/>
  <path d="M321.77,489.81c-1.38,.91-2.47,1.6-3.51,2.27-8.35-10.26-5.41-20.62,8.29-29.33,1.58,2.64,3.07,5.35,4.78,7.91,1.64,2.46,3.52,4.76,5.69,7.67-4.98,3.75-9.97,7.51-15.25,11.48Z" style="fill: #fbf9f9;"/>
  <path d="M611.65,658.65c-1.91,.94-3.51,1.67-6.34,2.97,4.1-6,5.2-11.22,1.56-17.06,4.93,2.67,9.85,5.34,15.57,8.45-4.15,2.16-7.31,3.8-10.79,5.65Z" style="fill: #f8f6f5;"/>
</svg>